<?xml version="1.0" encoding="utf-8"?>
<!-- Generator: Adobe Illustrator 23.0.1, SVG Export Plug-In . SVG Version: 6.00 Build 0)  -->
<svg version="1.1" id="Слой_1" xmlns="http://www.w3.org/2000/svg" xmlns:xlink="http://www.w3.org/1999/xlink" x="0px" y="0px"
	 viewBox="0 0 856.7 825.9" style="enable-background:new 0 0 856.7 825.9;" xml:space="preserve">
<style type="text/css">
	.st0{fill-rule:evenodd;clip-rule:evenodd;fill:#C5A68C;}
</style>
<path class="st0" d="M438.8,39.8c-6.3-1.6-13.8,2-18.2,5.2c-4.4,3.3-9.4,10-10.6,17c6.8,0.8,13.9-1.9,18.2-5.3
	C433.5,52.6,438,45.4,438.8,39.8z M514.6,57.2c-1.6-6.3-8.5-11.1-13.4-13.3c-5-2.3-13.3-3.3-20.1-1c2.6,6.4,8.4,11.3,13.5,13.4
	C500.9,58.8,509.4,59.2,514.6,57.2z M368.9,85.5c-1.9-6.5-9.1-11.2-14.4-13.4c-5.3-2.2-13.9-3-20.8-0.4c2.9,6.5,9.1,11.4,14.4,13.4
	C354.7,87.6,363.5,87.7,368.9,85.5z M400.2,53.7c5-4.5,6.2-13.1,5.8-18.7c-0.3-5.7-3.4-13.8-8.7-18.9c-4.6,5.5-6.3,13.1-5.8,18.8
	C392.1,41.8,395.9,49.8,400.2,53.7z M512.4,35.7c3.7-5.6,2.7-14.2,1-19.6c-1.7-5.4-6.7-12.6-13.1-16.1c-3.1,6.4-2.9,14.3-1,19.7
	C501.6,26.3,507.3,33.1,512.4,35.7z M529.9,54.1c6.8,0.1,13.4-5.4,17.1-9.7c3.7-4.4,7-12.4,6.5-19.8c-7.1,0.9-13.6,5.3-17.1,9.7
	C532.1,39.9,529.4,48.3,529.9,54.1z M570.8,173.1c-4-4.8-2.7-7.8,3.4-6.2c5.2,1.3,9.2,4.7,7.2,8.6
	C579.9,178.5,574.2,177.3,570.8,173.1z M533.1,219.3c10.6-1.4,28.4,2,37.1,8.2c9.3,6.6,1.9,16.3-4.2,12.4c-8-5.1-22.7-8.9-34.5-8
	C524.3,232.4,524.2,220.5,533.1,219.3z M528.2,337.6c4.7-6.7,11.3-5,9.3,0.7c-2.2,6.5-10.9,11.7-13,10.1
	C523.3,347.3,525.4,341.5,528.2,337.6z M512.6,328.3c7.6-5.3,12.9-1.6,8.6,3.8c-4.4,5.7-15.5,7.5-17.3,5
	C502.9,335.7,508,331.4,512.6,328.3z M500.5,317.6c8.6-3.2,12.9,1.9,6.3,5.5c-6.1,3.3-17.7,3.3-18.6,0.9
	C487.7,322.4,495.4,319.5,500.5,317.6z M488.5,307.1c7.5-0.5,11,2.9,4.4,5.7c-6.2,2.6-17,0.1-17.4-1.5
	C475.1,309.5,483.3,307.4,488.5,307.1z M477.8,295.7c7.7,0.3,10.2,3,3,4.8c-6.6,1.7-16.3-1.4-16.5-2.8
	C464.1,295.9,472.4,295.4,477.8,295.7z M467.6,288.6c6.3-0.4,7.4-3.4,3.2-4.3c-6.4-1.4-15.5,0-15.8,1.3
	C454.7,287.2,462.5,288.9,467.6,288.6z M493.8,281.4c6.7,0.5,7.6,3.2,2.5,4.8c-5.9,1.8-14.6,0.4-14.9-0.9
	C481,283.8,489,281.1,493.8,281.4z M507.2,290.7c7-1.6,9.2,1.3,4.7,4.6c-5.3,3.9-14.7,4.7-15.5,3.4
	C495.4,297.2,502.2,291.9,507.2,290.7z M519.1,299.8c7-3.5,10.7-0.8,6.7,3.6c-4.8,5.4-14.7,8.7-16.1,7
	C508.6,308.8,514.1,302.2,519.1,299.8z M530.8,307.9c5.6-5.6,10.6-4.2,8.6,1.4c-2.5,7.3-12.6,13.2-14.7,12
	C522.9,320.3,526.8,312,530.8,307.9z M544.5,314.4c3.6-5.8,7.7-5.1,7.1,0.2c-0.9,7.9-7.5,15.2-9.7,13.9
	C540.4,327.6,541.9,318.5,544.5,314.4z M558.3,316.3c2.2-5.4,6.6-2.4,5.6,4.2c-1.1,6.9-5.9,12.2-8.2,10.9
	C554.2,330.5,556.4,320.9,558.3,316.3z M560.6,290.3c0.5-6,4.5-6.2,5.9-1.1c1.9,6.7-0.9,15.6-3.3,15.3
	C561.1,304.4,560.1,295.4,560.6,290.3z M546.6,284.4c2.4-6.4,8.9-3.7,8.5,2.2c-0.5,7.6-7.6,15-9.2,14.5
	C543.8,300.5,544.6,289.8,546.6,284.4z M551.9,265.7c0.5-6.4,6.7-7.7,7.5-1.3c0.7,6-1.2,12.9-3,12.8
	C553.9,276.9,551.4,272.4,551.9,265.7z M538.7,258.9c2.3-3.4,7.7-1.9,6.4,3.5c-1.2,5.1-8.2,8.5-9.9,7.8
	C533.5,269.3,535.7,263.1,538.7,258.9z M521.8,271c5.6-2.4,6.5,2.1,2.3,5.4c-4,3.1-12.8,4.6-13.5,3.3
	C509.9,278.1,517.1,273.1,521.8,271z M534.4,277.3c4.6-4.6,9-0.3,6.2,4.7c-2.7,4.7-11.2,10.9-13.4,9.1
	C525.6,289.8,530.5,281.2,534.4,277.3z M544.2,342.9c4.4-6.9,9.4-6,7.7,0.2c-1.2,4.3-8.8,10.9-11,9.5
	C539.7,351.9,542,346.5,544.2,342.9z M572.1,264c7.9,28.2,6.2,53.4-4.5,77.9c-13.8,31.5-18,49.9-20.6,73.9
	c-1.5,13.6-0.8,24.9,0.3,31.5c2.6,15.5-10.5,17.1-13.5-0.9c-2.5-14.7-3.9-30.4-4-45.6c0-10.6-0.5-19.4-1.2-26.5
	c-0.6-5.6-5.9-12.3-9.7,0.3c-6,19.7-10.2,48.3-8,72.8c1.6,18.1-11.7,18-13,1.4c-1.3-16.4-2.4-28.3-3.8-49.4
	c-1.6-24.3-7.6-33.3-24-38.5c-18.9-6-40.8-1.9-62.3,12.3c-20.5,13.5-31,30.1-34.6,47.2c-2.5,11.8-2.3,23.7,0.9,32.3
	c3.1,8.6-4.1,12-8.7,4.6c-8.6-13.6-12.5-25-12.5-36.1c0-10.5,2.4-19.6,9.2-28.5c9.2-12.2,1.7-12.2-7.1-9.5
	c-15.8,4.8-25.6,12.1-31.7,25c-7,14.7-9.3,27.9-9.5,41.7c-0.2,12.6-11.7,13.3-12.4-0.6c-1.3-27.1,2-44,8.9-61.4
	c8.1-20.4,22.7-19.9,30.8-39.7c5.9-14.5,0.8-43.2,17.8-64.9c-8.2-2-13.6-7.8-13-12.2c1.1-8.8,18.9-14.2,30.3-2.2
	c17.6-9.4,39.8-9.4,60.3-5c37.8,8.1,55.9,8.1,71.2,0.9c11.1-5.3,17.1-12.8,21.5-25.7c10.2-0.9,22.6,0.9,30.2,4.7
	C565.8,247,568.5,251.3,572.1,264z M375.6,66c-1.4-7.6,1.6-12.4,4.2-4.9c3.1,9.2,9.2,20.1,15.4,24.9c6.3,4.8,10.5,4.2,8.6-2.3
	c-1.5-5-2.7-10.6-2.6-15.2c0.1-4.4,2.6-7.6,4.6-1.6c5.3,16.2,10.9,26.3,25.7,40.6c17.2,16.6,26.4,21.6,37.6,24.1c8.9,2,10.5-1.7,8-9
	c-2.9-8.2-4.8-16.3-5.5-24.2c-0.8-9,3.9-13.6,5.3-5.6c1.5,8.5,5.5,21,8.6,26.8c4.4,8,10,13.2,19.9,16.5c11,3.6,17.6,2.9,20.5,0.3
	c4.3-3.9,1.3-18.2-4.8-27.5c-14-21.5-32.8-34.5-46.4-33.4c-4.8,0.4-8,0.3-6.4-2c1.2-1.7,4.1-3.5,6.6-4.2c2.5-0.7,2.8-3.7-5.1-10
	c-3.4-2.7-3.1-7.4,3.7-3.2c9.4,5.7,15.7,14.1,24.6,20.4c10.4,7.4,16.5,9.2,19.9,8.1c3.8-1.2,6-12.1,3.8-23
	c-2.3-11.4-4.5-16-5.8-19.5c-2.2-6.2,1.3-8.9,5.1-2.2c6,10.6,9.2,24.2,8.7,36.9c-0.7,17.6,1.4,31.5,6,40.6
	c5.7,11.1,7.9,14.6,10.8,17.4c5.9,5.8,13.5,1,12.5-17.7c-0.5-8.7-2.1-15-4.7-20.1c-2.1-4-0.9-8.6,3.5-3c4.5,5.6,6.4,9.6,7.9,13.3
	c1.1,2.6,4.2,2.8,6.7,0.1c3.6-3.9,5.8-12,3.4-23.2c-1.7-7.8,1.6-8.2,4.4-2.3c3.7,7.7,4.2,17.7,0.3,26.8
	c-5.5,12.9-12.4,14.6-14.9,24.2c-1.1,4.2,1.1,5.8,4.1,4.3c11.8-5.8,17.2-10.5,21.9-16.8c6.2-8.1,9.9-15.4,10.3-27.6
	c0.2-6.5,3.7-7.8,4.5-2.4c1.7,11.7-1.3,24.6-7.5,34c-6.5,9.9-11.7,15.5-21.9,22.8c-3.5,2.5-3.9,5.8-1.2,7.4
	c11.4,6.6,13.8,11.6,18,17.3c5.1,6.8,11.7,12.7,20.1,14.9c7.9,2.1,9.8,9.9,5,14.5c-7.5,7.3-19.9,2.6-33,5.8
	c-7.7,1.9-12.3,6.2-15.2,13.5c-8.9-5.3-22.1-7.6-35.5-7.7c1.3-8.2,1.8-14.9,1.5-22.1c-0.3-7.5-3.9-11.8-9.5-11.6
	c-5.6,0.2-14.3,2.5-20.1-2.8c-10.4-9.6-12.5-15.3-3.5-16.9c7.7-1.4,17.1-2.5,21.1,2c5.3,5.9,10.6,0.7,5.9-4.4
	c-5.8-6.4-16.2-10-33.9-11.7c-25.1-2.4-36.4-4.9-48.7-11.8c-7.6-4.2-19.6-8.9-38.7-0.9c-6.4,2.7-10.8-0.1-5.2-4.4
	c5.6-4.4,11.9-7,16.3-8.1c6-1.5,7.9-6.5,0.8-12.4c-5.5-4.6-10.6-7.2-22.3-9.4c-11.7-2.2-18.1-3.8-21.4-5.6c-4.5-2.4-4.4-6-1.1-5.3
	c4.5,0.9,7.4-0.8,4.8-5.3C378.6,77.4,376.8,72,375.6,66z M59,568.8c8.3,0,12.4-2.8,12.5-11H44.7c-9,0-14.9,4-18.7,9.5
	c-1.1,1.6-2,3.5-2.8,5.7c-2.7-9.9-9.3-16.2-20.9-16.3l-2.4,5c6.4,2.1,8.4,6.7,8.4,16.2c0,35.1,0,44.5,0,79.5
	c0,16.3,16.2,13.2,16.2,13.2l0-78.8c0-6.6,0.1-13.7,3.7-18c2.7-3.2,6.5-5,12.2-5L59,568.8z M292.6,618.2l0-7.7
	c-0.1-7.3,2.9-12.7,12-12.7c9.1,0,11.3,5.9,11.3,12.4l0,2.3c0,9.6-10.8,13.2-18.1,15.9c-12.1,4.5-24.3,9.1-24.2,21.8l0,1.7
	c0,11.6,10.1,19.1,29.8,19.1c19.7,0,29.2-8.5,29.2-16.8c0.1-10-8.9-11.2-15.5-10.1l0,9.3c0,7.8-4.9,12.9-13.1,12.9
	c-8.2,0-13.9-4.4-13.9-12.6l0-2.9c0-10.8,9.7-15.4,17.3-18.2c6.6-2.4,24.8-6.9,24.8-19.9l0-1.2c0.1-14.7-14.7-18.3-28.5-18.3
	c-13.8,0-27.7,5.8-27.7,16C276,620.2,286.7,619.3,292.6,618.2z M71.1,633.5c11.4,0.2,22.3-0.2,22.3-15l0-3.4
	c0-10.7-3.9-17.3-15-17.3c-9.2,0-15.2,5.3-15.2,17.4l0,34.3c0,10.8,4.8,16.7,15.1,16.7c10.3,0,15.6-6.4,15.6-17.4
	c4-0.4,11.6,0.1,11.6,5.8c0.1,10.3-11.6,16.2-27.2,16.2c-28,0-31.2-14.7-31.3-29.2l0-19c0-14.4,4.8-29.4,31.3-29.4
	c15.6,0,31.1,4.3,31.1,22.7l0,1.6c0,20.1-22.9,22.2-38.3,20.8L71.1,633.5z M446.5,633.5c11.4,0.2,22.3-0.2,22.3-15l0-3.4
	c0-10.7-3.9-17.3-15-17.3c-9.2,0-15.2,5.3-15.2,17.4l0,34.3c0,10.8,4.8,16.7,15.1,16.7c10.3,0,15.6-6.4,15.6-17.4
	c4-0.4,11.6,0.1,11.6,5.8c0.1,10.3-11.6,16.2-27.2,16.2c-28,0-31.2-14.7-31.3-29.2l0-19c0-14.4,4.8-29.4,31.3-29.4
	c15.6,0,31.1,4.3,31.1,22.7l0,1.6c0,20.1-22.9,22.2-38.3,20.8V633.5z M818.4,732.2c11.4,0.2,22.3-0.2,22.3-15l0-3.4
	c0-10.7-3.9-17.3-15-17.3c-9.2,0-15.2,5.3-15.2,17.4l0,34.3c0,10.8,4.8,16.7,15.1,16.7c10.3,0,15.6-6.4,15.6-17.4
	c4-0.4,11.6,0.1,11.6,5.8c0.1,10.3-11.6,16.2-27.2,16.2c-28,0-31.2-14.7-31.3-29.2l0-19c0-14.4,4.8-29.4,31.3-29.4
	c15.6,0,31.1,4.3,31.1,22.7l0,1.6c0,20.1-22.9,22.2-38.3,20.8L818.4,732.2z M748.2,722.5v4.7c1.7-0.2,22.3-4.3,22.4,15.3l0,4.1
	c0,11.2-4.3,18.2-13.9,18.2c-9.6,0-14.1-7.4-14.1-18.2c0-13.9,0.1-27.9,0.1-41.8c0-9.5-6.9-14.6-16.3-12.8c0,14.5-0.1,29-0.1,43.5
	c0,9.1-2,33.9,30.4,33.9c25.1,0,29.6-15.5,29.6-23.4l0-2.2C786.3,728.6,773.4,716.6,748.2,722.5z M524.1,734.3c-1.4,0-2.7,0-3.6,0
	l0,4.6c12.6,0.1,21.7,2.8,21.7,21.5l0.1,30.1c0,10.5-5.3,16.8-15.1,16.8c-9.8,0-15.1-6.6-15.1-16.8c0-24.4,0.1-50.5,0.1-74.9
	c0-11.8,2.3-19,12-19c9.3,0,11.4,7.6,11.4,17.2l0,3.9c0,7.1-1.1,16-11.3,16.6L524.1,734.3z M539.7,736.5
	c6.1-3.1,11.5-10.6,11.5-19.4v-1.2c0-16.1-11.4-23.8-27.1-23.8c-15.7,0-28.3,8.8-28.3,26.6c-0.1,19.3,0,38.3-0.1,57.8
	c0,10.4-1.4,35.5,31.4,35.6c25.7,0,31.3-14.9,31.3-29.2l-0.1-19.1c-0.1-14.3-6.2-23.6-18.5-27.1L539.7,736.5z M614.4,748
	c0,9.7-5.5,16.8-15.1,16.8c-9.6,0-15.1-5.4-15.1-16.8v-34.3c0-11.1,5.6-17.4,15.1-17.4c9.6,0,15.1,6.3,15.1,17.4V748z M630.6,721
	c0-14-4.5-29.2-31.3-29.2c-26.8,0-31.4,15.1-31.3,29.4l0,19c0,14,4.5,29.2,31.3,29.2c26.8,0,31.3-15.2,31.3-29.3L630.6,721z
	 M385,748c0,9.7-5.5,16.8-15.1,16.8c-9.6,0-15.1-5.4-15.1-16.8v-34.3c0-11.1,5.6-17.4,15.1-17.4c9.6,0,15.1,6.3,15.1,17.4V748z
	 M401.3,721c0-14-4.5-29.2-31.3-29.2c-26.8,0-31.4,15.1-31.3,29.4l0,19c0,14,4.5,29.2,31.3,29.2c26.8,0,31.3-15.2,31.3-29.3
	L401.3,721z M453.4,764.5v4.4c-0.8,0.1-1.7,0.2-2.6,0.2c-11.9,1.4-14.3,9.3-14.3,21.6l0,6.5c0,11.1-0.3,23.3,12.9,23.3
	c14.6,0,12.7-17.4,12.7-28.2l-0.1-77.6c0-12.6-6.5-18.2-15.5-18.2c-9.1,0-14.7,6-14.7,17l0,34.1c0,15.2,12.4,16.7,21.6,15.8V764.5z
	 M478.2,791.5c0,21.1-6.7,33.8-28.6,33.8c-20.5,0-29.1-10.5-29.1-29.2l0-3.1c0-13.5,5.5-21.2,13.9-25.1c-2.3-0.6-4.5-1.4-6.4-2.4
	c-10.9-5.9-12.4-14.3-12.4-25.4l0-19c0-20.3,10.9-29.4,29.3-29.4c9.8,0,17.7,3.4,21.2,9c3.5-5.3,9.4-8.8,18-8.8l2.3,4.9
	c-6.3,2.1-8.2,6.6-8.2,15.8L478.2,791.5z M648.4,812.8c0,15.9,16.2,12.8,16.2,12.8l0-108.8c0-12.6,6.5-19.9,15.5-19.9
	c9.1,0,14.7,6,14.7,17l0,34c0,15.2-12.4,16.7-21.6,15.8v5.3c7.8,0.8,18.4,0.4,25.5-3.5c10.9-5.9,12.4-14.3,12.4-25.4l0-18.9
	c0-20.3-10.9-29.4-29.3-29.4c-9.4,0-17.1,4.2-20.8,9.7c-3.5-5.7-9.5-9.6-18.5-9.6l-2.3,4.9c6.3,2.1,8.2,6.6,8.2,15.8
	C648.4,747,648.4,778.7,648.4,812.8z M261.7,767.4l16.2,0l0-51.1l0-1c0-10.1,5.6-18.2,15.5-18.2c9.9,0,14.5,7.7,14.5,19.3l0,40.2
	c0,15.9,16.3,12.8,16.3,12.8l0-45.1c0-9.5,0.1-32.2-29.2-32.2c-9.7,0-17.2,4.6-20.7,9.7c-3.5-5.7-9.5-9.5-18.4-9.5l-2.3,4.9
	c6.3,2.1,8.2,6.6,8.2,15.8L261.7,767.4z M818.4,633.5c11.4,0.2,22.3-0.2,22.3-15l0-3.4c0-10.7-4-17.3-15-17.3
	c-9.2,0-15.2,5.3-15.2,17.4l0,34.3c0,10.8,4.8,16.7,15.1,16.7c10.3,0,15.6-6.4,15.6-17.4c4-0.4,11.6,0.1,11.6,5.8
	c0.1,10.3-11.6,16.2-27.2,16.2c-28,0-31.2-14.7-31.3-29.2l0-19c0-14.4,4.8-29.4,31.3-29.4c15.7,0,31.1,4.3,31.1,22.7v1.6
	c0,20.1-22.9,22.2-38.3,20.8V633.5z M522,593.3l0,4.6c12.6,0.1,21.7,2.8,21.7,21.5l0.1,30.1c0,10.5-5.3,16.8-15.1,16.8
	c-9.8,0-15.1-6.6-15.1-16.8c0-24.4,0.1-50.5,0.1-74.9c0-11.8,2.3-19,12-19c9.3,0,11.4,7.6,11.4,17.2l0,3.9c0,7.1-1.1,16-11.3,16.6
	L522,593.3z M541.3,595.4c6.1-3.1,11.5-10.6,11.5-19.4v-1.2c0-16.1-11.4-23.8-27.1-23.8c-15.7,0-28.3,8.8-28.3,26.6
	c-0.1,19.3,0,38.3-0.1,57.8c0,10.4-1.4,35.5,31.4,35.6c25.7,0,31.3-14.9,31.3-29.2l-0.1-19.1C559.9,607.9,554.1,598.7,541.3,595.4z
	 M166.8,649.5c0,9.7-5.5,16.8-15.1,16.8c-9.6,0-15.1-5.4-15.1-16.8v-34.3c0-11.1,5.6-17.4,15.1-17.4c9.6,0,15.1,6.3,15.1,17.4V649.5
	z M183.1,622.4c0-14-4.5-29.2-31.3-29.2c-26.8,0-31.4,15.1-31.3,29.4l0,19c0,14,4.5,29.2,31.3,29.2c26.8,0,31.3-15.2,31.3-29.3
	L183.1,622.4z M763.3,649.5c0,11.3-6,17.1-15.1,17.1c-8.7,0-15.1-5.8-15.1-17.1v-34.3c0-11,6.5-17.4,15.1-17.4
	c8.6,0,15.1,6.4,15.1,17.4V649.5z M779.5,622.4c-0.1-11.4-4.7-29.2-31.3-29.2c-26.8,0-31.2,18.1-31.3,29.5l-0.1,16
	c-0.1,15,3.9,32.2,31.4,32.2c27.5,0,31.5-17.2,31.4-32.3L779.5,622.4z M632.8,610.9c-0.1-9.5-11.2-17.8-28.4-17.7
	c-23.6,0-30,15.6-30,29.4l0,19c0,11.5,3.8,29.2,30,29.2c19.3,0,27.9-9.6,27.9-16.6c0-9.5-7.2-10.6-15-9.9v4c0,9.7-3,18.2-12.9,18.2
	c-9.1,0-13.8-7-13.8-17.1l0-34.3c0-10.9,5.6-17.4,13.8-17.4c9.6,0,12.9,6.5,12.9,16.6l0,5.9C626.3,621.5,632.9,619.9,632.8,610.9z
	 M200.9,714.2c0,15.9,16.2,12.8,16.2,12.8l0-108.8c0-12.6,6.5-19.9,15.5-19.9c9.1,0,14.7,6,14.7,17l0,34c0,15.2-12.3,16.7-21.6,15.8
	v5.3c7.8,0.8,18.4,0.4,25.5-3.5c10.9-5.9,12.4-14.3,12.4-25.4l0-18.9c0-20.3-10.9-29.4-29.3-29.4c-9.4,0-17.1,4.2-20.8,9.7
	c-3.5-5.7-9.5-9.6-18.5-9.6l-2.3,4.9c6.3,2.1,8.2,6.6,8.2,15.8C200.9,648.3,200.8,680,200.9,714.2z M405.5,595.4h-16.2l0,52.1
	c0,10.1-5,18.2-14.9,18.2c-9.9,0-13.8-7.3-13.8-18.9l0-40.4c0-15.9-16.2-12.8-16.2-12.8l0,44.3c0,9.1-1.6,33.1,28.2,33.1
	c10,0,17-4.2,20.6-9.7c3.7,5.6,10,9.5,18.9,9.6l2-4.4c-6.4-2.4-8.5-6.8-8.5-16L405.5,595.4z M668.8,627.9c9.8-0.8,13.7-5.9,14-13
	c0.1-2.5,0.2-4.5,0.3-7.3c0.5-11.6,8.8-14.6,19.4-14.4l1.8,3.6c-5.5,3.1-6.5,6.4-6.7,13c-0.1,2.6-0.1,0.8-0.2,5.8
	c-0.1,7.1-4.8,11.3-10.7,13.5c7,2,12.9,6.5,13.1,15c0.1,5.3,0.2,5.9,0.3,8.7c0.2,6.9,2.7,11.5,8.5,14.7l-1.9,3.8
	c-11.1,0.1-21.7-4.1-22.2-16.2c-0.1-2.9-0.3-6.5-0.4-9.1c-0.3-7.5-4.9-13-15.2-13.9C668.8,630.5,668.8,629.2,668.8,627.9z
	 M646.6,668.7l16.1,0l0-51.3c0-12.9-6.7-24.1-22-24.1l-2.3,4.9c6.3,2.1,8.2,6.6,8.2,15.8L646.6,668.7z"/>
</svg>
