<svg width="39" height="46" viewBox="0 0 39 46" fill="none" xmlns="http://www.w3.org/2000/svg">
<path fill-rule="evenodd" clip-rule="evenodd" d="M28.0781 17.589H26.6882C26.4102 17.589 26.1649 17.393 26.1649 17.1152C26.1649 16.8212 26.4102 16.6415 26.6882 16.6415H28.0781C28.3234 16.6415 28.5524 16.8375 28.5524 17.1152C28.5524 17.4093 28.3071 17.589 28.0781 17.589ZM26.0178 11.7729L25.0693 12.7205C24.9712 12.8185 24.8241 12.8675 24.6932 12.8675C24.5951 12.8675 24.448 12.8185 24.3662 12.7205C24.17 12.5244 24.17 12.1977 24.3662 12.0016L25.3637 11.0541C25.5599 10.858 25.8379 10.858 26.0341 11.0541C26.214 11.2501 26.214 11.5932 26.0178 11.7729ZM26.0178 23.1601C25.9197 23.2581 25.8215 23.3071 25.6907 23.3071C25.5436 23.3071 25.4454 23.2581 25.3637 23.1601L24.3662 22.2125C24.17 22.0165 24.17 21.6897 24.3662 21.4937C24.5624 21.2976 24.8895 21.2976 25.0857 21.4937L26.0341 22.4903C26.214 22.6863 26.214 22.9804 26.0178 23.1601ZM20.4417 25.2186C20.4417 25.4473 20.2454 25.6924 19.9675 25.6924C19.6895 25.6924 19.4932 25.4473 19.4932 25.2186V23.8299C19.4932 23.5359 19.6895 23.3071 19.9675 23.3071C20.2618 23.3071 20.4417 23.5522 20.4417 23.8299V25.2186ZM15.5687 12.7368C15.4706 12.8348 15.3234 12.8838 15.2417 12.8838C15.0945 12.8838 14.9637 12.8348 14.8656 12.7368L13.9008 11.7729C13.7046 11.5769 13.7046 11.2501 13.9008 11.0541C14.097 10.858 14.4241 10.858 14.6203 11.0541L15.5687 12.0016C15.7649 12.214 15.7649 12.5408 15.5687 12.7368ZM15.5687 22.2125L14.6203 23.1601C14.5222 23.2581 14.375 23.3071 14.2442 23.3071C14.1461 23.3071 13.9989 23.2581 13.9172 23.1601C13.7209 22.9641 13.7209 22.6863 13.9172 22.4903L14.8656 21.4937C15.0618 21.2976 15.3888 21.2976 15.5851 21.4937C15.7649 21.6897 15.7649 22.0165 15.5687 22.2125ZM13.2304 17.589H11.8895C11.6115 17.589 11.3662 17.393 11.3662 17.1152C11.3662 16.8212 11.6115 16.6415 11.8895 16.6415H13.2304C13.5247 16.6415 13.7536 16.8375 13.7536 17.1152C13.77 17.4093 13.5247 17.589 13.2304 17.589ZM19.4932 9.06088C19.4932 8.76681 19.6895 8.53809 19.9675 8.53809C20.2618 8.53809 20.4417 8.78315 20.4417 9.06088V10.4006C20.4417 10.6783 20.2454 10.9234 19.9675 10.9234C19.6895 10.9234 19.4932 10.6783 19.4932 10.4006V9.06088Z" fill="white"/>
<path fill-rule="evenodd" clip-rule="evenodd" d="M34.0959 8.6361C29.7626 1.64367 21.0306 -0.986661 13.6721 2.11745C12.8545 2.46054 12.5274 3.45712 13.0016 4.20865C13.3777 4.81313 14.1299 5.05819 14.784 4.78046C16.779 3.93091 18.8884 3.60416 20.9651 3.73486V3.7512C26.2959 4.09429 30.7928 7.49247 32.706 12.214C32.706 12.214 32.706 12.214 32.706 12.2303C32.7878 12.41 32.8532 12.6061 32.9186 12.8021C32.9349 12.8348 32.9349 12.8512 32.9513 12.8838C33.0167 13.0472 33.0658 13.2269 33.1148 13.3903C33.1312 13.4556 33.1475 13.521 33.1639 13.5863C33.1966 13.717 33.2456 13.8477 33.2783 13.9948C33.311 14.1255 33.3437 14.2398 33.3601 14.3705C33.3764 14.4522 33.3928 14.5339 33.4091 14.5993C34.5047 20.007 32.1827 25.7741 27.2444 28.8292C21.1123 32.6195 13.067 30.9694 8.94629 25.0552L8.92994 25.0389C7.81799 23.4378 7.03308 21.5754 6.70604 19.5495C6.91862 19.4515 7.11485 19.3208 7.27837 19.1574C7.86705 18.6019 8.24315 17.8177 8.24315 16.9355V8.29301C8.24315 8.03161 8.03057 7.81922 7.75258 7.81922C7.49095 7.83556 7.29472 8.04795 7.29472 8.30935C7.29472 8.30935 7.29472 9.97577 7.29472 11.6422C7.29472 13.3249 7.29472 15.024 7.29472 15.024C7.29472 15.2364 7.11485 15.4161 6.90227 15.4161C6.68969 15.4161 6.50981 15.2364 6.50981 15.024V8.30935C6.50981 8.04795 6.31359 7.83556 6.05195 7.81922C5.79032 7.81922 5.56139 8.03161 5.56139 8.29301V15.0404C5.56139 15.2528 5.38151 15.4325 5.16894 15.4325C4.95636 15.4325 4.77648 15.2528 4.77648 15.0404V8.32568C4.77648 8.06429 4.58026 7.8519 4.31862 7.83556C4.05699 7.83556 3.82806 8.04795 3.82806 8.30935V15.0404C3.82806 15.2528 3.64818 15.4325 3.43561 15.4325C3.22303 15.4325 3.04315 15.2528 3.04315 15.0404V8.32568C3.04315 8.06429 2.84693 7.8519 2.58529 7.83556C2.32366 7.83556 2.09473 8.04795 2.09473 8.30935V16.9519C2.09473 17.8177 2.47083 18.6183 3.05951 19.1737C3.27208 19.3698 3.51737 19.5168 3.79535 19.6312C4.9073 27.7182 11.7752 33.8284 20.1148 33.8284C24.7588 33.8284 28.945 31.9006 31.9375 28.7965C37.072 23.5032 38.1513 15.2037 34.0959 8.6361Z" fill="white"/>
<path fill-rule="evenodd" clip-rule="evenodd" d="M23.7448 15.6611C23.6631 15.5141 23.4832 15.4651 23.3524 15.5304L19.9675 17.2785L18.2996 15.22C18.1851 15.0893 17.9889 15.0566 17.858 15.171C17.7272 15.2854 17.6945 15.4814 17.809 15.6121L19.575 17.785C19.5914 17.8013 19.6077 17.8177 19.6404 17.834C19.7222 17.9484 19.8857 17.981 20.0165 17.9157L23.6467 16.0532C23.7612 15.9879 23.8266 15.8082 23.7448 15.6611Z" fill="white"/>
<path d="M4.33513 38.4021C4.44219 38.4021 4.53396 38.448 4.61044 38.5244C4.68691 38.6008 4.73279 38.6925 4.73279 38.7994C4.73279 38.9064 4.68691 39.0134 4.61044 39.0898C4.53396 39.1662 4.44219 39.212 4.33513 39.212H1.5668V41.1527H3.70805C3.81511 41.1527 3.90688 41.1985 3.98336 41.2749C4.05983 41.3513 4.10571 41.4583 4.10571 41.5653C4.10571 41.6722 4.07512 41.7639 3.98336 41.8403C3.90688 41.9167 3.81511 41.9473 3.70805 41.9473H1.5668V43.8727C1.5668 43.9796 1.52092 44.0713 1.44445 44.1477C1.36797 44.2241 1.27621 44.2547 1.16914 44.2547C1.06208 44.2547 0.970314 44.2241 0.893841 44.1325C0.817368 44.0561 0.771484 43.9644 0.771484 43.8574V38.7536C0.771484 38.7078 0.771484 38.6619 0.786779 38.6161C0.802074 38.5702 0.817368 38.5244 0.863252 38.4938C0.893841 38.4633 0.939725 38.4327 0.985609 38.4021C1.03149 38.3716 1.09267 38.3716 1.16914 38.3716H4.33513V38.4021Z" fill="white"/>
<path d="M4.87061 42.13C4.87061 41.8244 4.93178 41.5493 5.03885 41.2743C5.1612 41.0145 5.31415 40.77 5.51298 40.5866C5.71181 40.4032 5.94123 40.2352 6.21653 40.1129C6.47654 39.9907 6.76714 39.9448 7.07303 39.9448C7.37892 39.9448 7.65423 40.0059 7.92953 40.1129C8.18954 40.2352 8.41896 40.388 8.61779 40.5866C8.81662 40.7853 8.96957 41.0145 9.09192 41.2743C9.21428 41.534 9.26016 41.8244 9.26016 42.13C9.26016 42.4356 9.19899 42.7107 9.09192 42.9857C8.98486 43.2608 8.81662 43.4747 8.61779 43.6734C8.41896 43.872 8.18954 44.0248 7.92953 44.1471C7.66952 44.2693 7.37892 44.3151 7.07303 44.3151C6.76714 44.3151 6.49184 44.254 6.21653 44.1471C5.95652 44.0248 5.71181 43.872 5.51298 43.6734C5.31415 43.4747 5.1612 43.2455 5.03885 42.9857C4.91649 42.7259 4.87061 42.4356 4.87061 42.13ZM5.65063 42.13C5.65063 42.3134 5.68122 42.4967 5.75769 42.6648C5.83417 42.8329 5.92593 42.9857 6.04829 43.108C6.17065 43.2302 6.3236 43.3372 6.49184 43.4136C6.66008 43.49 6.84361 43.5205 7.04244 43.5205C7.24127 43.5205 7.42481 43.49 7.59305 43.4136C7.76129 43.3372 7.91424 43.2455 8.03659 43.108C8.15895 42.9857 8.26601 42.8329 8.32719 42.6648C8.40366 42.4967 8.43425 42.3134 8.43425 42.13C8.43425 41.9313 8.40366 41.7632 8.32719 41.5799C8.25072 41.4118 8.15895 41.259 8.03659 41.1367C7.91424 41.0145 7.76129 40.9075 7.59305 40.8464C7.42481 40.77 7.24127 40.7394 7.04244 40.7394C6.84361 40.7394 6.67537 40.77 6.49184 40.8464C6.3236 40.9228 6.17065 41.0145 6.04829 41.1367C5.92593 41.259 5.81887 41.4118 5.75769 41.5799C5.69652 41.7632 5.65063 41.9466 5.65063 42.13Z" fill="white"/>
<path d="M10.0247 42.13C10.0247 41.8244 10.0858 41.5493 10.1929 41.2743C10.3153 41.0145 10.4682 40.77 10.667 40.5866C10.8659 40.4032 11.0953 40.2352 11.3706 40.1129C11.6306 39.9907 11.9212 39.9448 12.2271 39.9448C12.533 39.9448 12.8083 40.0059 13.0836 40.1129C13.3436 40.2352 13.573 40.388 13.7718 40.5866C13.9707 40.7853 14.1236 41.0145 14.246 41.2743C14.3683 41.534 14.4142 41.8244 14.4142 42.13C14.4142 42.4356 14.353 42.7107 14.246 42.9857C14.1389 43.2608 13.9707 43.4747 13.7718 43.6734C13.573 43.872 13.3436 44.0248 13.0836 44.1471C12.8236 44.2693 12.533 44.3151 12.2271 44.3151C11.9212 44.3151 11.6459 44.254 11.3706 44.1471C11.1106 44.0248 10.8659 43.872 10.667 43.6734C10.4682 43.4747 10.3153 43.2455 10.1929 42.9857C10.0705 42.7259 10.0247 42.4356 10.0247 42.13ZM10.82 42.13C10.82 42.3134 10.8506 42.4967 10.927 42.6648C11.0035 42.8329 11.0953 42.9857 11.2176 43.108C11.34 43.2302 11.4929 43.3372 11.6612 43.4136C11.8294 43.49 12.013 43.5205 12.2118 43.5205C12.4106 43.5205 12.5942 43.49 12.7624 43.4136C12.9306 43.3372 13.0836 43.2455 13.2059 43.108C13.3283 42.9857 13.4354 42.8329 13.4965 42.6648C13.573 42.4967 13.6036 42.3134 13.6036 42.13C13.6036 41.9313 13.573 41.7632 13.4965 41.5799C13.4201 41.4118 13.3283 41.259 13.2059 41.1367C13.0836 41.0145 12.9306 40.9075 12.7624 40.8464C12.5942 40.77 12.4106 40.7394 12.2118 40.7394C12.013 40.7394 11.8447 40.77 11.6612 40.8464C11.4929 40.9228 11.34 41.0145 11.2176 41.1367C11.0953 41.259 10.9882 41.4118 10.927 41.5799C10.8506 41.7632 10.82 41.9466 10.82 42.13Z" fill="white"/>
<path d="M19.6299 43.872C19.6299 43.9942 19.6146 44.0859 19.5687 44.1471C19.5228 44.2235 19.4463 44.254 19.324 44.254C19.2781 44.254 19.2322 44.2387 19.2016 44.2235C19.171 44.2082 19.1404 44.1929 19.1098 44.1623C19.0946 44.1318 19.064 44.1165 19.064 44.0859C19.0487 44.0554 19.0487 44.0401 19.0334 44.0248L18.9569 43.6122C18.7581 43.8262 18.5134 43.9942 18.2533 44.1165C17.978 44.2387 17.6874 44.2999 17.3816 44.2999C17.0757 44.2999 16.8004 44.2387 16.5251 44.1318C16.265 44.0095 16.0203 43.8567 15.8368 43.6581C15.638 43.4594 15.485 43.2302 15.378 42.9551C15.2709 42.6954 15.2097 42.405 15.2097 42.1147C15.2097 41.8091 15.2709 41.534 15.378 41.259C15.485 40.9992 15.6533 40.7547 15.8368 40.5713C16.0356 40.3727 16.265 40.2199 16.5251 40.0976C16.7851 39.9754 17.0757 39.9295 17.3816 39.9295C17.6722 39.9295 17.9322 39.9754 18.1769 40.0823C18.4216 40.1893 18.651 40.3268 18.8498 40.5102V38.7529C18.8498 38.6459 18.8804 38.539 18.9569 38.4626C19.0334 38.3862 19.1251 38.3403 19.2322 38.3403C19.3546 38.3403 19.4463 38.3862 19.5228 38.4626C19.5993 38.539 19.6452 38.6459 19.6452 38.7529V43.872H19.6299ZM18.7428 42.13C18.7428 41.9313 18.7122 41.7632 18.6357 41.5799C18.5592 41.3965 18.4675 41.259 18.3298 41.1367C18.2075 41.0145 18.0545 40.9075 17.8863 40.8311C17.718 40.7547 17.5345 40.7241 17.3357 40.7241C17.1368 40.7241 16.9533 40.7547 16.7851 40.8311C16.6168 40.9075 16.4639 40.9992 16.3415 41.1367C16.2192 41.2743 16.1121 41.4118 16.0509 41.5799C15.9744 41.748 15.9439 41.9313 15.9439 42.13C15.9439 42.3134 15.9744 42.4967 16.0509 42.6648C16.1274 42.8329 16.2192 42.9857 16.3415 43.108C16.4639 43.2302 16.6168 43.3372 16.7851 43.4136C16.9533 43.49 17.1368 43.5205 17.3357 43.5205C17.5345 43.5205 17.7027 43.49 17.8863 43.4136C18.0545 43.3372 18.2075 43.2455 18.3298 43.108C18.4522 42.9857 18.5592 42.8329 18.6357 42.6648C18.7122 42.4967 18.7428 42.3286 18.7428 42.13Z" fill="white"/>
<path d="M26.5737 43.0163H23.7442L23.3159 44.0249C23.3006 44.0707 23.27 44.1166 23.2242 44.1624C23.1783 44.193 23.1477 44.2235 23.0865 44.2388C23.0406 44.2541 22.9947 44.2694 22.9336 44.2694C22.8724 44.2694 22.8265 44.2541 22.7806 44.2235C22.6735 44.1777 22.5971 44.1166 22.5665 44.0096C22.5359 43.9026 22.5359 43.8109 22.5818 43.704L24.7689 38.6307C24.8454 38.4626 24.9524 38.3862 25.136 38.3862C25.2125 38.3862 25.2889 38.4015 25.3501 38.4474C25.4113 38.4932 25.4572 38.5543 25.4878 38.6307L27.6902 43.704C27.7361 43.8109 27.7361 43.9026 27.7055 44.0096C27.6749 44.1166 27.6137 44.1777 27.5066 44.2235C27.3996 44.2694 27.3078 44.2694 27.2008 44.2388C27.0937 44.2082 27.0172 44.1318 26.9713 44.0249L26.5737 43.0163ZM24.0807 42.237H26.2525L25.1666 39.6698L24.0807 42.237Z" fill="white"/>
<path d="M28.5465 40.388C28.5465 40.2657 28.5618 40.174 28.623 40.1129C28.6689 40.0365 28.7454 40.0059 28.8677 40.0059C28.9748 40.0059 29.0513 40.0365 29.0972 40.1129C29.143 40.1893 29.2042 40.281 29.2348 40.388L29.2501 40.5561C29.4489 40.3727 29.6783 40.2199 29.9384 40.1129C30.1984 40.0059 30.4737 39.9448 30.7643 39.9448C31.0702 39.9448 31.3455 40.0059 31.6208 40.1129C31.8808 40.2352 32.1102 40.388 32.309 40.5866C32.5078 40.7853 32.6608 41.0145 32.7832 41.2743C32.9055 41.534 32.9514 41.8244 32.9514 42.13C32.9514 42.4356 32.8902 42.7107 32.7832 42.9857C32.6761 43.2608 32.5078 43.4747 32.309 43.6734C32.1102 43.872 31.8808 44.0248 31.6208 44.1471C31.3608 44.2693 31.0702 44.3152 30.7643 44.3152C30.489 44.3152 30.229 44.2693 29.9842 44.1776C29.7395 44.0859 29.5254 43.9484 29.3266 43.7956V45.4154C29.3266 45.5223 29.296 45.6293 29.2195 45.7057C29.143 45.7821 29.0513 45.828 28.9442 45.828C28.8218 45.828 28.7301 45.7821 28.6536 45.7057C28.5771 45.6293 28.5312 45.5223 28.5312 45.4154V40.388H28.5465ZM29.3725 42.13C29.3725 42.3134 29.403 42.4967 29.4795 42.6648C29.556 42.8329 29.6478 42.9857 29.7701 43.108C29.8925 43.2302 30.0454 43.3372 30.2137 43.4136C30.3819 43.49 30.5654 43.5205 30.7643 43.5205C30.9631 43.5205 31.1466 43.49 31.3149 43.4136C31.4831 43.3372 31.6361 43.2455 31.7584 43.108C31.8808 42.9857 31.9878 42.8329 32.049 42.6648C32.1255 42.4967 32.1561 42.3134 32.1561 42.13C32.1561 41.9313 32.1255 41.7632 32.049 41.5799C31.9725 41.4118 31.8808 41.259 31.7584 41.1367C31.6361 41.0145 31.4831 40.9075 31.3149 40.8464C31.1466 40.77 30.9631 40.7394 30.7643 40.7394C30.5654 40.7394 30.3972 40.77 30.2137 40.8464C30.0454 40.9228 29.8925 41.0145 29.7701 41.1367C29.6478 41.259 29.5407 41.4118 29.4795 41.5799C29.4183 41.748 29.3725 41.9466 29.3725 42.13Z" fill="white"/>
<path d="M33.8996 40.388C33.8996 40.2657 33.9149 40.174 33.976 40.1129C34.0219 40.0365 34.0984 40.0059 34.2208 40.0059C34.3278 40.0059 34.4043 40.0365 34.4502 40.1129C34.4961 40.1893 34.5572 40.281 34.5878 40.388L34.6031 40.5561C34.802 40.3727 35.0314 40.2199 35.2914 40.1129C35.5514 40.0059 35.8267 39.9448 36.1173 39.9448C36.4232 39.9448 36.6985 40.0059 36.9738 40.1129C37.2338 40.2352 37.4632 40.388 37.662 40.5866C37.8609 40.7853 38.0138 41.0145 38.1362 41.2743C38.2585 41.534 38.3044 41.8244 38.3044 42.13C38.3044 42.4356 38.2432 42.7107 38.1362 42.9857C38.0291 43.2608 37.8609 43.4747 37.662 43.6734C37.4632 43.872 37.2338 44.0248 36.9738 44.1471C36.7138 44.2693 36.4232 44.3152 36.1173 44.3152C35.842 44.3152 35.582 44.2693 35.3373 44.1776C35.0926 44.0859 34.8784 43.9484 34.6796 43.7956V45.4154C34.6796 45.5223 34.649 45.6293 34.5725 45.7057C34.4961 45.7821 34.4043 45.828 34.2972 45.828C34.1749 45.828 34.0831 45.7821 34.0066 45.7057C33.9302 45.6293 33.8843 45.5223 33.8843 45.4154V40.388H33.8996ZM34.7255 42.13C34.7255 42.3134 34.7561 42.4967 34.8325 42.6648C34.909 42.8329 35.0008 42.9857 35.1231 43.108C35.2455 43.2302 35.3984 43.3372 35.5667 43.4136C35.7349 43.49 35.9185 43.5205 36.1173 43.5205C36.3161 43.5205 36.4997 43.49 36.6679 43.4136C36.8361 43.3372 36.9891 43.2455 37.1114 43.108C37.2338 42.9857 37.3409 42.8329 37.402 42.6648C37.4785 42.4967 37.5091 42.3134 37.5091 42.13C37.5091 41.9313 37.4785 41.7632 37.402 41.5799C37.3256 41.4118 37.2338 41.259 37.1114 41.1367C36.9891 41.0145 36.8361 40.9075 36.6679 40.8464C36.4997 40.77 36.3161 40.7394 36.1173 40.7394C35.9185 40.7394 35.7502 40.77 35.5667 40.8464C35.3984 40.9228 35.2455 41.0145 35.1231 41.1367C35.0008 41.259 34.8937 41.4118 34.8325 41.5799C34.7714 41.748 34.7255 41.9466 34.7255 42.13Z" fill="white"/>
</svg>
