<svg width="19" height="19" viewBox="0 0 19 19" fill="none" xmlns="http://www.w3.org/2000/svg">
<path d="M12.326 9.5L18.722 3.10423C19.0919 2.73432 19.0919 2.13405 18.722 1.76356L17.2358 0.277425C16.8659 -0.0924751 16.2656 -0.0924751 15.8951 0.277425L9.4997 6.67379L3.10373 0.278019C2.73382 -0.0918812 2.13353 -0.0918812 1.76302 0.278019L0.277434 1.76356C-0.092478 2.13346 -0.092478 2.73373 0.277434 3.10423L6.67341 9.5L0.277434 15.8958C-0.092478 16.2657 -0.092478 16.8659 0.277434 17.2364L1.76361 18.7226C2.13353 19.0925 2.73382 19.0925 3.10432 18.7226L9.4997 12.3262L15.8957 18.722C16.2656 19.0919 16.8659 19.0919 17.2364 18.722L18.7226 17.2358C19.0925 16.8659 19.0925 16.2657 18.7226 15.8952L12.326 9.5Z" fill="black"/>
</svg>
