<svg width="12" height="22" viewBox="0 0 12 22" fill="none" xmlns="http://www.w3.org/2000/svg">
<path fill-rule="evenodd" clip-rule="evenodd" d="M11.5499 0.00787888L8.66777 0C5.43819 0 3.34568 2.12513 3.34568 5.41529V7.91059H0.455605C0.335594 7.91017 0.220291 7.957 0.134914 8.04107C0.0495371 8.12515 0.00105864 8.23968 1.5808e-05 8.3593V11.9799C0.00126507 12.0995 0.049823 12.2138 0.135155 12.2978C0.220487 12.3818 0.335657 12.4289 0.455605 12.4287H3.34568V21.5512C3.34568 21.6102 3.35732 21.6686 3.37994 21.723C3.40256 21.7775 3.4357 21.8269 3.47749 21.8685C3.51928 21.9102 3.56891 21.9432 3.62352 21.9658C3.67813 21.9883 3.73666 22 3.79577 22H7.57808C7.63719 22 7.69572 21.9883 7.75033 21.9658C7.80494 21.9432 7.85457 21.9102 7.89636 21.8685C7.93815 21.8269 7.97129 21.7775 7.99391 21.723C8.01653 21.6686 8.02817 21.6102 8.02817 21.5512V12.4287H11.4078C11.528 12.4291 11.6436 12.3822 11.7293 12.2982C11.8151 12.2142 11.8641 12.0998 11.8658 11.9799V8.3593C11.8635 8.24101 11.8154 8.12801 11.7315 8.04434C11.6476 7.96068 11.5343 7.91281 11.4157 7.91059H8.02817V5.79329C8.02817 4.7779 8.27296 4.25825 9.60743 4.25825H11.5499C11.6693 4.25825 11.7838 4.21114 11.8682 4.127C11.9526 4.04286 12 3.92872 12 3.80973V0.448712C11.9983 0.33096 11.9501 0.218587 11.8659 0.136055C11.7816 0.0535232 11.668 0.00745255 11.5499 0.00787888Z" fill="#0ABB66"/>
</svg>
