<svg width="20" height="20" viewBox="0 0 20 20" fill="none" xmlns="http://www.w3.org/2000/svg">
<path d="M15.0643 7.12186L19.2642 2.7492C19.5132 2.48956 19.6452 2.13901 19.6288 1.7794C19.6132 1.41975 19.4496 1.08245 19.178 0.846353C18.9065 0.610298 18.5494 0.495845 18.1909 0.52979C17.8326 0.564048 17.5044 0.743579 17.2818 1.02682L12.6673 6.90557C11.807 6.85522 10.8989 6.8271 9.95659 6.8271C4.6621 6.8271 0.369873 7.67963 0.369873 8.73182C0.727139 12.6526 2.62147 15.9859 5.28288 17.8169C5.10112 17.9925 4.98718 18.2376 4.98718 18.5103C4.98718 19.0438 5.41968 19.476 5.95292 19.476H13.9603C14.4934 19.476 14.926 19.0438 14.926 18.5103C14.926 18.2375 14.8118 17.9923 14.63 17.8166C17.2912 15.9856 19.1854 12.6523 19.5427 8.73182C19.5427 8.05323 17.752 7.45928 15.0643 7.12186ZM16.8857 8.73178C15.9659 8.93749 14.6659 9.1319 13.0243 9.24573L13.9401 8.29225C15.1541 8.40741 16.1444 8.56588 16.8857 8.73178ZM9.95663 8.11467C10.5685 8.11467 11.1405 8.1287 11.691 8.14905L10.7569 9.33913C10.4937 9.3435 10.2321 9.34854 9.95663 9.34854C6.80862 9.34854 4.46097 9.05245 3.02683 8.73178C4.46093 8.41084 6.80862 8.11467 9.95663 8.11467Z" fill="white"/>
</svg>
