<svg width="30" height="30" viewBox="0 0 30 30" fill="none" xmlns="http://www.w3.org/2000/svg">
<path d="M10.1402 13.1438V13.1423C10.1384 13.1444 10.1379 13.1453 10.1402 13.1438Z" fill="white"/>
<path d="M11.0938 13.1423V13.1435C11.0955 13.1448 11.0951 13.144 11.0938 13.1423Z" fill="white"/>
<path d="M26.2956 16.4899C28.001 16.4899 29.3891 15.1029 29.3891 13.3978C29.3891 11.6923 28.001 10.3053 26.2956 10.3053C25.8406 10.3053 25.4117 10.4101 25.0224 10.5877C25.0471 10.3026 25.0679 10.025 25.0817 9.764C25.0817 8.26839 20.2241 7.05591 14.2299 7.05591C8.23662 7.05591 3.37902 8.26839 3.37902 9.764C3.50881 12.2432 4.13939 15.917 5.13765 18.7201C2.65545 19.2749 0.644043 20.1917 0.644043 21.7054C0.644043 25.4338 12.8393 25.5414 14.2299 25.5414C15.6207 25.5414 27.8169 25.4338 27.8169 21.7054C27.8169 20.1906 25.8027 19.2738 23.3181 18.7189C23.6559 17.7698 23.9539 16.7268 24.2024 15.658C24.7539 16.1698 25.486 16.4899 26.2956 16.4899ZM26.2956 12.2119C26.9501 12.2119 27.4825 12.7439 27.4825 13.3978C27.4825 14.0513 26.9501 14.5833 26.2956 14.5833C25.6431 14.5833 25.1124 14.0512 25.1124 13.3978C25.1124 12.7439 25.6431 12.2119 26.2956 12.2119ZM7.18879 9.65454C8.77 9.283 11.1558 8.96249 14.2299 8.96249C17.3045 8.96249 19.6914 9.28312 21.2727 9.65472C21.3884 9.68191 21.3884 9.84609 21.2727 9.87327C19.6914 10.2448 17.3045 10.5655 14.2299 10.5655C13.084 10.5655 12.0422 10.5184 11.0937 10.4433V13.1199L12.5822 14.3887C12.7712 14.5503 12.8811 14.7872 12.8811 15.0362V18.8391C12.8811 19.3085 12.5005 19.689 12.0311 19.689H9.20289C8.73349 19.689 8.35298 19.3085 8.35298 18.8391V15.0362C8.35298 14.7872 8.46279 14.5503 8.65187 14.3887L10.1404 13.1227V10.3544C8.96974 10.228 7.97746 10.0574 7.18879 9.8731C7.07301 9.84603 7.07301 9.68167 7.18879 9.65454ZM25.8562 21.7054C25.159 22.4451 20.9763 23.6348 14.2298 23.6348C7.48345 23.6348 3.30174 22.4451 2.60447 21.7054C2.93775 21.3521 4.07529 20.8969 5.90008 20.517C6.17195 20.9945 6.45279 21.3882 6.70351 21.7492C7.08385 22.2746 10.3079 22.6852 14.2308 22.6852C18.152 22.6852 21.3759 22.2746 21.7564 21.7492C22.0236 21.3882 22.2835 20.9971 22.5612 20.5172C24.3858 20.8971 25.5231 21.3522 25.8562 21.7054Z" fill="white"/>
</svg>
