<svg width="28" height="28" viewBox="0 0 28 28" fill="none" xmlns="http://www.w3.org/2000/svg">
<path d="M4.11385 7.52869H4.8349C5.9625 3.52031 9.63089 0.576538 14.0001 0.576538C18.3704 0.576538 22.0383 3.52031 23.1654 7.52869H23.8861C25.2275 7.52869 26.314 8.61555 26.314 9.95665C26.314 11.2981 25.2275 12.3845 23.8861 12.3845H4.11379C2.77236 12.3845 1.68594 11.2981 1.68594 9.95665C1.686 8.61555 2.77236 7.52869 4.11385 7.52869ZM21.3067 11.3717C22.0029 11.3717 22.5669 10.8077 22.5669 10.1115C22.5669 9.41541 22.0029 8.85147 21.3067 8.85147C20.6106 8.85147 20.0466 9.41541 20.0466 10.1115C20.0466 10.8077 20.6106 11.3717 21.3067 11.3717ZM19.0394 6.48071C19.5955 6.48071 20.0466 6.02959 20.0466 5.47353C20.0466 4.91747 19.5955 4.4663 19.0394 4.4663C18.4833 4.4663 18.0322 4.91741 18.0322 5.47353C18.0322 6.02965 18.4833 6.48071 19.0394 6.48071ZM15.0228 10.1229C15.725 10.1229 16.2943 9.5536 16.2943 8.85141C16.2943 8.14912 15.725 7.57987 15.0228 7.57987C14.3206 7.57987 13.7513 8.14917 13.7513 8.85141C13.7512 9.5536 14.3205 10.1229 15.0228 10.1229ZM13.746 4.4663C14.4421 4.4663 15.0061 3.9023 15.0061 3.20624C15.0061 2.51007 14.4421 1.94608 13.746 1.94608C13.0498 1.94608 12.4858 2.51007 12.4858 3.20624C12.4858 3.9023 13.0498 4.4663 13.746 4.4663ZM9.64051 7.57987C10.222 7.57987 10.6937 7.10863 10.6937 6.5267C10.6937 5.94521 10.222 5.47353 9.64051 5.47353C9.05858 5.47353 8.58734 5.94521 8.58734 6.5267C8.58728 7.10863 9.05858 7.57987 9.64051 7.57987ZM6.30337 10.6908C6.88486 10.6908 7.35654 10.2196 7.35654 9.63765C7.35654 9.05622 6.88486 8.58448 6.30337 8.58448C5.72144 8.58448 5.2502 9.05622 5.2502 9.63765C5.2502 10.2196 5.72144 10.6908 6.30337 10.6908Z" fill="white"/>
<path d="M5.25362 14.3571H22.7463C23.0609 14.3571 23.3584 14.5023 23.5522 14.7504C23.7456 14.9989 23.8139 15.3227 23.7373 15.6282L20.9676 26.6503C20.8535 27.1049 20.4448 27.4234 19.9766 27.4234H8.02333C7.55477 27.4234 7.14603 27.1049 7.0319 26.6503L4.26263 15.6282C4.18569 15.3227 4.25443 14.9989 4.4478 14.7504C4.64156 14.5023 4.93901 14.3571 5.25362 14.3571Z" fill="white"/>
</svg>
