<svg width="76" height="29" viewBox="0 0 76 29" fill="none" xmlns="http://www.w3.org/2000/svg">
<path d="M75.3536 25.3536C75.5488 25.1583 75.5488 24.8417 75.3536 24.6464L72.1716 21.4645C71.9763 21.2692 71.6597 21.2692 71.4645 21.4645C71.2692 21.6597 71.2692 21.9763 71.4645 22.1716L74.2929 25L71.4645 27.8284C71.2692 28.0237 71.2692 28.3403 71.4645 28.5355C71.6597 28.7308 71.9763 28.7308 72.1716 28.5355L75.3536 25.3536ZM0.5 0V22H1.5V0H0.5ZM4 25.5H75V24.5H4V25.5ZM0.5 22C0.5 23.933 2.067 25.5 4 25.5V24.5C2.61929 24.5 1.5 23.3807 1.5 22H0.5Z" fill="white"/>
</svg>
