<svg width="25" height="25" viewBox="0 0 25 25" fill="none" xmlns="http://www.w3.org/2000/svg">
<path d="M22.4941 15.8193C22.6856 15.5083 22.7976 15.1758 22.7976 14.8173C22.7976 14.0113 22.2758 13.325 21.3988 12.7613C21.751 12.3583 21.9477 11.9104 21.9477 11.4173C21.9477 11.0586 21.8358 10.7261 21.6442 10.4151C22.8823 9.79536 23.6482 8.99399 23.6482 8.0168C23.6482 6.46611 21.7157 5.36089 19.0282 4.71948C19.0893 4.94189 19.1258 5.17368 19.1258 5.41274C19.1258 5.74155 19.0583 6.0564 18.9446 6.35044C20.9304 6.8606 22.0397 7.54912 22.0397 8.0168C22.0397 8.84312 18.5792 10.3609 12.9249 10.3609C7.27156 10.3609 3.81106 8.84312 3.81106 8.0168C3.81106 7.58701 4.75374 6.97148 6.4467 6.47847C6.29944 6.1501 6.21594 5.78931 6.21594 5.4124C6.21594 5.2209 6.24338 5.0353 6.28328 4.85361C3.87893 5.51055 2.20256 6.57109 2.20256 8.0168C2.20256 8.37534 2.31443 8.70791 2.50598 9.0188C1.26785 9.63872 0.502075 10.4401 0.502075 11.4173C0.502075 12.2233 1.02385 12.9095 1.901 13.4731C1.54871 13.8761 1.35188 14.324 1.35188 14.8173C1.35188 15.7945 2.1177 16.5958 3.35583 17.2156C3.16423 17.5266 3.05227 17.8592 3.05227 18.2177C3.05227 20.8127 8.44651 22.1704 13.7747 22.1704C19.1038 22.1704 24.498 20.8128 24.498 18.2177C24.4979 17.2406 23.7323 16.4392 22.4941 15.8193ZM3.80876 10.1922C5.80193 11.3629 9.37346 11.9693 12.9249 11.9693C15.5167 11.9693 18.119 11.6457 20.1136 11.0171C20.257 11.1604 20.3392 11.2966 20.3392 11.4172C20.3392 12.2435 16.8787 13.7612 11.2253 13.7612C5.57107 13.7612 2.11057 12.2435 2.11057 11.4172C2.11057 11.075 2.71204 10.6147 3.80876 10.1922ZM2.96033 14.8173C2.96033 14.6396 3.12927 14.4295 3.43625 14.21C5.49026 14.9746 8.36321 15.3698 11.2253 15.3698C14.5663 15.3698 17.9321 14.8356 19.9789 13.7975C20.762 14.1592 21.189 14.5299 21.189 14.8172C21.189 15.6435 17.7284 17.1612 12.075 17.1612C6.42087 17.1613 2.96033 15.6435 2.96033 14.8173ZM13.7746 20.5618C8.12127 20.5618 4.66077 19.044 4.66077 18.2177C4.66077 18.0972 4.74299 17.9608 4.88635 17.8177C6.88103 18.4461 9.48323 18.7698 12.075 18.7698C15.6265 18.7698 19.1981 18.1634 21.1912 16.9927C22.288 17.4152 22.8894 17.8754 22.8894 18.2177C22.8894 19.044 19.4289 20.5618 13.7746 20.5618Z" fill="white"/>
<path d="M16.9054 4.49733L13.0757 2.91559C12.8188 2.80948 12.5304 2.80939 12.2734 2.9153L8.43464 4.49762C8.06389 4.65157 7.82434 5.0109 7.82434 5.41232C7.82434 5.81598 8.06545 6.1753 8.43616 6.32765L12.2718 7.90982C12.5287 8.01578 12.8172 8.01573 13.0742 7.90968L16.9069 6.32726C17.2776 6.1733 17.5172 5.81407 17.5172 5.41266C17.5172 5.009 17.276 4.64967 16.9054 4.49733ZM12.6712 6.33595L10.4343 5.41232L12.6712 4.48903L14.9072 5.41266L12.6712 6.33595Z" fill="white"/>
</svg>
