<svg width="22" height="22" viewBox="0 0 22 22" fill="none" xmlns="http://www.w3.org/2000/svg">
<path fill-rule="evenodd" clip-rule="evenodd" d="M15.9275 0H6.07247C4.46049 0.00416808 2.91598 0.645477 1.77762 1.78313C0.639256 2.92078 6.14382e-06 4.46187 1.15674e-05 6.06866V15.9313C6.14382e-06 17.5381 0.639256 19.0794 1.77762 20.217C2.91598 21.3547 4.46049 21.9958 6.07247 22H15.9275C17.5395 21.9958 19.084 21.3547 20.2224 20.217C21.3608 19.0794 22 17.5381 22 15.9313V6.06866C22 4.46187 21.3608 2.92078 20.2224 1.78313C19.084 0.645477 17.5395 0.00416808 15.9275 0ZM20.0496 15.9313C20.0491 17.0216 19.6149 18.0673 18.8422 18.839C18.0695 19.6107 17.0214 20.0454 15.9275 20.0479H6.07247C4.97864 20.0454 3.93051 19.6107 3.15779 18.839C2.38508 18.0673 1.95087 17.0216 1.95045 15.9313V6.06866C1.95087 4.97835 2.38508 3.93267 3.15779 3.16097C3.93051 2.38927 4.97864 1.95454 6.07247 1.95204H15.9275C17.0214 1.95454 18.0695 2.38927 18.8422 3.16097C19.6149 3.93267 20.0491 4.97835 20.0496 6.06866V15.9313ZM11 5.32882C9.87401 5.32492 8.77222 5.65405 7.83408 6.27467C6.89593 6.89528 6.16366 7.77943 5.72989 8.81513C5.29611 9.85082 5.18044 10.9915 5.39742 12.0927C5.6144 13.194 6.15428 14.2065 6.94879 15.0018C7.7433 15.797 8.75664 16.3394 9.86058 16.5603C10.9645 16.7811 12.1094 16.6705 13.1502 16.2424C14.1911 15.8144 15.081 15.0882 15.7076 14.1557C16.3341 13.2231 16.669 12.1262 16.6698 11.0039C16.6706 9.50261 16.0743 8.06217 15.0115 6.99837C13.9487 5.93457 12.5061 5.33423 11 5.32882ZM11 14.7191C10.2613 14.7214 9.53866 14.5052 8.92343 14.0978C8.3082 13.6904 7.82813 13.1102 7.54403 12.4306C7.25992 11.751 7.18458 11.0025 7.32753 10.2802C7.47047 9.55789 7.82526 8.8941 8.34699 8.37295C8.86872 7.85179 9.53394 7.49675 10.2583 7.35273C10.9827 7.20871 11.7336 7.28218 12.416 7.56392C13.0984 7.84567 13.6816 8.32304 14.0916 8.93542C14.5016 9.5478 14.7201 10.2677 14.7193 11.0039C14.7193 11.9879 14.3277 12.9317 13.6305 13.6282C12.9332 14.3247 11.9871 14.717 11 14.7191ZM16.9067 3.67579C16.719 3.67572 16.5331 3.71259 16.3597 3.78417C16.1862 3.85575 16.0286 3.96066 15.8959 4.09298C15.6944 4.29288 15.5569 4.54793 15.5008 4.82572C15.4447 5.10351 15.4725 5.39154 15.5807 5.65358C15.6889 5.91562 15.8726 6.13978 16.1087 6.29773C16.3447 6.45567 16.6224 6.54041 16.9067 6.54101C17.2851 6.53753 17.6473 6.38798 17.9174 6.12382C18.1855 5.85344 18.336 5.48857 18.336 5.1084C18.336 4.72823 18.1855 4.36336 17.9174 4.09298C17.7851 3.96006 17.6277 3.85483 17.4541 3.78321C17.2806 3.71159 17.0945 3.67498 16.9067 3.67579Z" fill="#0ABB66"/>
</svg>
