<svg width="26" height="26" viewBox="0 0 26 26" fill="none" xmlns="http://www.w3.org/2000/svg">
<g clip-path="url(#clip0)">
<path d="M21.9412 1.16014C21.5591 0.984106 21.1089 1.05261 20.7964 1.33421L19.1475 2.79423C19.1026 2.83416 19.0349 2.83392 18.9903 2.79376L16.7467 0.7871C16.3409 0.423506 15.7266 0.423506 15.3209 0.7871L13.0793 2.79192C13.0342 2.8322 12.9661 2.8322 12.921 2.79192L10.6792 0.7871C10.2734 0.423565 9.65908 0.423565 9.2533 0.7871L7.00942 2.79376C6.9645 2.83392 6.89666 2.8341 6.85151 2.79417L5.20107 1.33421C4.76322 0.944835 4.09259 0.984106 3.70321 1.42196C3.5286 1.61832 3.43307 1.87247 3.43509 2.13519V24.0277C3.43117 24.6146 3.90372 25.0935 4.49058 25.0974C4.75347 25.0992 5.00763 25.0034 5.20405 24.8287L6.85299 23.3687C6.89785 23.3287 6.96551 23.329 7.01013 23.3691L9.25372 25.3758C9.6595 25.7394 10.2738 25.7394 10.6796 25.3758L12.9214 23.371C12.9665 23.3307 13.0346 23.3307 13.0797 23.371L15.3215 25.3757C15.7274 25.7391 16.3416 25.7391 16.7474 25.3757L18.9914 23.3691C19.0363 23.3289 19.1041 23.3287 19.1493 23.3687L20.7997 24.8286C21.2378 25.2178 21.9083 25.1782 22.2975 24.7402C22.4718 24.544 22.5673 24.2902 22.5654 24.0277V2.13519C22.5709 1.71462 22.3255 1.33112 21.9412 1.16014ZM7.3685 9.04151H13.285C13.5475 9.04151 13.7603 9.25432 13.7603 9.5168C13.7603 9.77927 13.5475 9.99208 13.285 9.99208H7.3685C7.10602 9.99208 6.89321 9.77927 6.89321 9.5168C6.89321 9.25432 7.10602 9.04151 7.3685 9.04151ZM18.6319 17.1214H7.3685C7.10602 17.1214 6.89321 16.9086 6.89321 16.6461C6.89321 16.3836 7.10602 16.1708 7.3685 16.1708H18.6319C18.8944 16.1708 19.1072 16.3836 19.1072 16.6461C19.1072 16.9086 18.8944 17.1214 18.6319 17.1214ZM18.6319 13.5567H7.3685C7.10602 13.5567 6.89321 13.3439 6.89321 13.0814C6.89321 12.819 7.10602 12.6062 7.3685 12.6062H18.6319C18.8944 12.6062 19.1072 12.819 19.1072 13.0814C19.1072 13.3439 18.8944 13.5567 18.6319 13.5567Z" fill="white"/>
</g>
<defs>
<clipPath id="clip0">
<rect x="0.433105" y="0.514404" width="25.134" height="25.134" fill="white"/>
</clipPath>
</defs>
</svg>
