<svg width="14" height="29" viewBox="0 0 14 29" fill="none" xmlns="http://www.w3.org/2000/svg">
<path d="M11.2 0.740967H2.8C1.25576 0.740967 0 2.32203 0 4.26633V25.4185C0 27.3628 1.25576 28.9438 2.8 28.9438H11.2C12.7442 28.9438 14 27.3628 14 25.4185V4.26633C14 2.32203 12.7442 0.740967 11.2 0.740967ZM7 27.1812C6.22676 27.1812 5.6 26.3919 5.6 25.4185C5.6 24.4449 6.22676 23.6558 7 23.6558C7.77324 23.6558 8.4 24.4449 8.4 25.4185C8.4 26.3919 7.77324 27.1812 7 27.1812ZM2.8 21.8931V4.26633H11.2L11.2017 21.8931H2.8Z" fill="white"/>
</svg>
