<svg width="20" height="21" viewBox="0 0 20 21" fill="none" xmlns="http://www.w3.org/2000/svg">
<path d="M4.33862 10.9021C3.5097 10.9021 2.76014 10.6703 2.08995 10.2067C1.43739 9.72456 0.925926 9.07552 0.555556 8.25957C0.185185 7.42508 0 6.50714 0 5.50574C0 4.48581 0.185185 3.56787 0.555556 2.75192C0.925926 1.91743 1.43739 1.26838 2.08995 0.80477C2.7425 0.322619 3.49206 0.081543 4.33862 0.081543C5.18518 0.081543 5.93474 0.322619 6.5873 0.80477C7.23986 1.26838 7.74251 1.91743 8.09524 2.75192C8.46561 3.56787 8.65079 4.48581 8.65079 5.50574C8.65079 6.50714 8.45679 7.42508 8.06878 8.25957C7.69841 9.07552 7.17813 9.72456 6.50794 10.2067C5.85538 10.6703 5.13228 10.9021 4.33862 10.9021ZM4.65608 19.859C4.33862 19.859 4.02998 19.7292 3.73016 19.4696C3.43034 19.21 3.28042 18.8854 3.28042 18.496C3.28042 18.2549 3.36861 17.9768 3.54497 17.6615L14.0741 0.943852C14.3915 0.49879 14.7531 0.276259 15.1587 0.276259C15.4762 0.276259 15.7848 0.406069 16.0847 0.665689C16.3845 0.925308 16.5344 1.24983 16.5344 1.63926C16.5344 1.88034 16.4462 2.1585 16.2698 2.47375L5.74074 19.1914C5.42328 19.6365 5.06173 19.859 4.65608 19.859ZM4.33862 8.42647C4.85009 8.42647 5.25573 8.15757 5.55556 7.61979C5.85538 7.06346 6.00529 6.35878 6.00529 5.50574C6.00529 4.63416 5.85538 3.92948 5.55556 3.3917C5.27337 2.85391 4.86772 2.58502 4.33862 2.58502C3.82716 2.58502 3.4127 2.86318 3.09524 3.41951C2.79541 3.9573 2.6455 4.65271 2.6455 5.50574C2.6455 6.35878 2.79541 7.06346 3.09524 7.61979C3.39506 8.15757 3.80952 8.42647 4.33862 8.42647ZM15.6878 20.0815C14.8942 20.0815 14.1623 19.8497 13.4921 19.3861C12.8395 18.904 12.3192 18.2549 11.9312 17.439C11.5432 16.6045 11.3492 15.6865 11.3492 14.6852C11.3492 13.6652 11.5344 12.7473 11.9048 11.9313C12.2751 11.0968 12.7866 10.4478 13.4392 9.98419C14.0917 9.50203 14.8413 9.26096 15.6878 9.26096C16.5344 9.26096 17.2839 9.50203 17.9365 9.98419C18.5891 10.4478 19.0917 11.0968 19.4444 11.9313C19.8148 12.7473 20 13.6652 20 14.6852C20 15.6865 19.806 16.6045 19.418 17.439C19.0476 18.2549 18.5273 18.904 17.8571 19.3861C17.2046 19.8497 16.4815 20.0815 15.6878 20.0815ZM15.6878 17.6059C16.1993 17.6059 16.6049 17.337 16.9048 16.7992C17.2046 16.2429 17.3545 15.5382 17.3545 14.6852C17.3545 13.8136 17.2046 13.1089 16.9048 12.5711C16.6226 12.0333 16.2169 11.7644 15.6878 11.7644C15.1764 11.7644 14.7619 12.0426 14.4444 12.5989C14.1446 13.1367 13.9947 13.8321 13.9947 14.6852C13.9947 15.5382 14.1446 16.2429 14.4444 16.7992C14.7443 17.337 15.1587 17.6059 15.6878 17.6059Z" fill="white"/>
</svg>
