<svg width="22" height="22" viewBox="0 0 22 22" fill="none" xmlns="http://www.w3.org/2000/svg">
<g clip-path="url(#clip0)">
<path d="M11.0001 0.699951C5.26658 0.699951 0.618652 5.34788 0.618652 11.0814C0.618652 16.8149 5.26658 21.4628 11.0001 21.4628C16.7336 21.4628 21.3815 16.8149 21.3815 11.0814C21.3815 5.34788 16.7336 0.699951 11.0001 0.699951ZM11.0001 19.638C6.28197 19.638 2.44352 15.7995 2.44352 11.0814C2.44352 6.36327 6.28197 2.52481 11.0001 2.52481C15.7182 2.52481 19.5567 6.36327 19.5567 11.0814C19.5567 15.7995 15.7182 19.638 11.0001 19.638Z" fill="white"/>
<path d="M11.0002 3.74133C6.95286 3.74133 3.66016 7.03403 3.66016 11.0813C3.66016 15.1286 6.95286 18.4213 11.0002 18.4213C15.0475 18.4213 18.3402 15.1286 18.3402 11.0813C18.3402 7.03403 15.0475 3.74133 11.0002 3.74133ZM11.6084 11.3333L7.53049 15.4113L6.67025 14.551L10.3919 10.8294V5.5662H11.6084V11.3333Z" fill="white"/>
</g>
<defs>
<clipPath id="clip0">
<rect x="0.618652" y="0.699951" width="20.7629" height="20.7629" fill="white"/>
</clipPath>
</defs>
</svg>
