<svg width="126" height="126" viewBox="0 0 126 126" fill="none" xmlns="http://www.w3.org/2000/svg">
<path d="M126 62.999C126 97.815 97.7653 126 63.0015 126C28.1855 126 0 97.7623 0 62.999C0 28.182 28.2377 0 63.0015 0C97.7653 0 126 28.1825 126 62.999Z" fill="white"/>
<path d="M69.2728 27.1669C68.7424 27.0618 66.0834 26.6381 62.9462 26.6381C59.8091 26.6381 57.151 27.0618 56.6201 27.1669C56.3004 27.2195 56.1948 26.901 56.406 26.7433C56.6201 26.5855 62.9462 21.7655 62.9462 21.7655C62.9462 21.7655 69.2728 26.585 69.4835 26.7433C69.6981 26.901 69.5926 27.2195 69.2728 27.1669ZM58.3194 58.3061C58.3194 58.3061 58.0027 58.4112 57.8941 58.7297C59.2234 59.7353 60.1268 62.0654 62.8944 62.0654C65.6585 62.0654 66.562 59.7358 67.8913 58.7297C67.7852 58.4112 67.4659 58.3061 67.4659 58.3061C67.4659 58.3061 65.7123 58.7297 62.8944 58.7297C60.074 58.7292 58.3194 58.3061 58.3194 58.3061ZM62.8939 54.4395C62.1484 54.4395 61.9342 54.1766 61.4556 54.1766C60.9775 54.1766 59.9684 54.6003 59.7573 54.9158C59.7573 55.0765 59.8629 55.2348 59.9684 55.392C61.0865 55.5528 61.6174 56.1873 62.8939 56.1873C64.1674 56.1873 64.7013 55.5537 65.8164 55.392C65.9773 55.2348 66.0306 55.0765 66.0306 54.9158C65.8164 54.5477 64.8592 54.1766 64.3288 54.1766C63.8507 54.124 63.6888 54.4395 62.8939 54.4395ZM125.948 66.3026C125.842 67.7839 125.736 69.3218 125.575 70.751C118.45 71.9178 115.898 65.613 108.562 65.8794C108.987 67.4173 109.361 69.0043 109.625 70.5942C115.687 70.5942 118.079 76.206 124.833 75.3582C124.461 77.0533 124.034 78.749 123.557 80.4441C118.24 80.9725 116.379 75.7298 110.212 75.8349C110.263 76.7373 110.263 77.5822 110.263 78.4831C110.263 78.9623 110.263 79.4911 110.212 79.9674C115.475 79.9158 117.174 84.7338 122.175 84.5215C121.536 86.2166 120.845 87.8592 120.1 89.4988C116.485 89.2884 115.261 84.7343 109.839 85.1034C109.681 86.2697 109.466 87.4355 109.199 88.5993C113.933 88.2828 114.942 92.6231 118.345 92.9421C117.494 94.5321 116.538 96.067 115.581 97.5483C113.558 96.4902 111.805 93.2601 108.031 93.0478C108.404 91.8319 108.774 90.613 109.041 89.3946C105.637 89.3946 101.81 88.0705 98.5685 85.1565C99.6308 79.1726 90.3259 73.1357 90.3259 68.7423C90.3259 64.0275 92.7175 61.3793 92.7175 54.9728C92.7175 50.2064 90.3792 45.0674 86.9253 41.5724C86.2321 40.8858 85.5403 40.3565 84.7449 39.8247C87.9339 43.7964 90.4315 48.4587 90.4315 53.9117C90.4315 59.9501 87.6151 63.1271 87.6151 68.6863C87.6151 74.2484 95.8019 79.068 95.8019 84.7879C95.8019 87.0644 95.0593 89.2368 92.718 93.5766C96.3886 97.2328 101.172 99.1909 104.256 99.1909C105.268 99.1909 105.799 98.8724 106.172 98.1322C106.489 97.4432 106.756 96.7566 107.023 96.0665C110.318 96.1717 111.858 99.1909 113.666 100.41C112.657 101.734 111.595 103.058 110.477 104.328C109.256 102.953 107.606 100.673 105.16 100.039C104.734 100.886 104.257 101.682 103.778 102.53C105.853 103.111 107.288 105.178 108.405 106.553C107.234 107.769 105.958 108.936 104.681 110.101C103.886 108.883 102.61 107.293 101.228 106.392C100.694 107.082 100.162 107.768 99.6313 108.458C100.855 109.254 101.864 110.736 102.557 111.901C101.066 113.116 99.5257 114.23 97.9295 115.289C97.1311 108.882 88.414 104.538 90.7523 97.1237C89.9539 98.4477 89.0505 100.09 89.0505 102.052C89.0505 107.4 94.7924 111.688 95.2182 116.985C94.0503 117.675 92.8266 118.361 91.5511 118.999C91.3365 113.118 85.2768 106.711 85.2768 101.944C85.2768 96.5958 92.3485 91.1944 92.3485 84.8395C92.3485 78.4831 84.2115 74.0902 84.2115 68.5275C84.2115 62.9688 87.6679 59.7889 87.6679 52.6402C87.6679 47.397 85.1702 42.1563 81.3418 38.766C80.6485 38.1846 80.0125 37.7079 79.1619 37.2842C82.7767 41.6245 84.9033 45.5436 84.9033 51.5299C84.9033 58.2555 80.9155 61.9613 80.9155 68.529C80.9155 75.0958 88.8916 78.7505 88.8916 84.841C88.8916 90.9285 81.4474 96.1201 81.4474 102.421C81.4474 108.141 87.9881 113.862 88.0937 120.639C86.6589 121.276 85.224 121.858 83.7334 122.334C84.5845 115.503 77.1961 108.408 77.1961 102.793C77.1961 96.702 84.9043 91.4087 84.9043 84.84C84.9043 78.2727 77.0881 75.2009 77.0881 68.4233C77.0881 61.6448 81.927 57.8834 81.927 50.4157C81.927 44.5906 79.0573 39.347 74.8025 36.1174C74.6965 36.0648 74.6442 35.9596 74.5386 35.9071C74.166 35.5886 73.793 35.9596 74.1133 36.3307C77.089 40.037 78.6853 43.7954 78.6853 49.3576C78.6853 56.1887 73.1565 61.7499 73.1565 68.3703C73.1565 76.206 80.5977 78.43 80.5977 84.8395C80.5977 91.246 72.6216 96.384 72.6216 103.215C72.6216 109.516 80.1714 116.56 78.8421 123.817C77.355 124.185 75.8141 124.557 74.2706 124.822C75.7055 115.764 68.3171 109.2 68.3171 103.267C68.3171 96.8603 76.5561 91.0877 76.5561 84.839C76.5561 78.9052 70.6554 77.0003 69.8575 70.9088C69.7519 70.0619 69.0592 69.4795 68.1557 69.6403C66.935 69.8506 65.3916 70.6453 63 70.6453C60.5526 70.6453 59.0655 69.8501 57.8418 69.6403C56.9389 69.4795 56.2486 70.117 56.14 70.9088C55.3446 77.0003 49.4409 78.9052 49.4409 84.839C49.4409 91.1398 57.6839 96.8598 57.6839 103.267C57.6839 109.2 50.292 115.712 51.7304 124.822C50.1864 124.557 48.6465 124.185 47.1554 123.817C45.8789 116.508 53.3759 109.516 53.3759 103.215C53.3759 96.384 45.4003 91.246 45.4003 84.8395C45.4003 78.43 52.844 76.206 52.844 68.3703C52.844 61.7499 47.3157 56.1873 47.3157 49.3576C47.3157 43.7954 48.909 40.037 51.8872 36.3307C52.1542 35.9596 51.8349 35.6407 51.4619 35.9071C51.3563 35.9596 51.3035 36.0648 51.195 36.1174C46.996 39.347 44.0705 44.5906 44.0705 50.4157C44.0705 57.8834 48.909 61.6448 48.909 68.4233C48.909 75.2009 41.0952 78.2727 41.0952 84.84C41.0952 91.4082 48.8039 96.7005 48.8039 102.793C48.8039 108.406 41.4125 115.452 42.2636 122.334C40.776 121.806 39.3411 121.276 37.9063 120.639C38.0119 113.862 44.5491 108.142 44.5491 102.421C44.5491 96.1206 37.1079 90.9846 37.1079 84.841C37.1079 78.6969 45.083 75.0958 45.083 68.529C45.083 61.9618 41.0957 58.2555 41.0957 51.5299C41.0957 45.5441 43.2229 41.6245 46.8381 37.2842C46.0398 37.7079 45.3475 38.1846 44.6582 38.766C40.8293 42.1563 38.3321 47.4526 38.3321 52.6402C38.3321 59.7889 41.786 62.9688 41.786 68.5275C41.786 74.0902 33.652 78.4826 33.652 84.8395C33.652 91.1944 40.7232 96.5428 40.7232 101.944C40.7232 106.765 34.6611 113.174 34.4499 118.999C33.2262 118.362 32.0025 117.727 30.7823 116.985C31.2604 111.636 37.0028 107.401 37.0028 102.052C37.0028 100.09 36.0994 98.4477 35.301 97.1237C37.6398 104.538 28.9197 108.935 28.1238 115.289C26.5276 114.23 24.9871 113.116 23.4965 111.901C24.1898 110.734 25.2511 109.253 26.422 108.459C25.8916 107.768 25.3039 107.134 24.8258 106.392C23.3909 107.24 22.1672 108.829 21.3699 110.101C20.0959 108.988 18.8199 107.769 17.649 106.553C18.7671 105.178 20.2015 103.058 22.2763 102.53C21.7952 101.734 21.3166 100.886 20.8918 100.039C18.4479 100.673 16.7979 102.953 15.5782 104.328C14.4601 103.057 13.3983 101.786 12.3857 100.41C14.2489 99.1909 15.7371 96.2243 19.0849 96.0665C19.3513 96.7566 19.6716 97.4432 19.9355 98.1327C20.3081 98.925 20.8385 99.1909 21.8515 99.1909C24.9324 99.1909 29.718 97.1797 33.3861 93.5766C30.995 89.2368 30.3047 87.0644 30.3047 84.7879C30.3047 79.068 38.4915 74.2484 38.4915 68.6863C38.4915 63.1271 35.6746 59.9501 35.6746 53.9117C35.6746 48.4577 38.1189 43.7959 41.3612 39.8247C40.5658 40.3009 39.8735 40.8858 39.1813 41.5724C35.6746 45.0674 33.3861 50.259 33.3861 54.9728C33.3861 61.3793 35.7807 63.9749 35.7807 68.7423C35.7807 73.1347 26.4763 79.1726 27.5386 85.1565C24.2964 88.1226 20.4141 89.3946 17.0135 89.3946C17.3303 90.613 17.6505 91.8319 18.0226 93.0478C14.1936 93.2611 12.4385 96.4902 10.4733 97.5483C9.46424 96.067 8.55981 94.5321 7.70866 92.9421C11.1123 92.5711 12.1218 88.2283 16.8517 88.5993C16.5877 87.4355 16.3735 86.2697 16.2147 85.1034C10.7392 84.7353 9.51654 89.3415 5.95357 89.4988C5.208 87.8587 4.51871 86.2166 3.87873 84.5215C8.87556 84.7353 10.5779 79.9158 15.7888 79.9674C15.7888 79.4911 15.7888 79.0149 15.7888 78.4831C15.7888 77.5827 15.8411 76.7373 15.8411 75.8349C9.67342 75.6777 7.81275 80.9725 2.49617 80.4441C2.01806 78.8011 1.59323 77.1059 1.2197 75.3582C7.91883 76.206 10.3657 70.5416 16.4243 70.5942C16.6913 69.0043 17.0638 67.4173 17.4902 65.8794C10.1515 65.5604 7.60207 71.9178 0.47762 70.751C0.263463 69.2697 0.157382 67.7849 0.0522958 66.3026C8.34366 67.2025 11.4808 60.4249 19.0306 61.2727C19.7229 59.4724 20.574 57.7246 21.5312 56.029C12.0685 54.3864 8.82227 62.2783 0 61.0594C0.740087 27.1669 28.6537 0 62.8934 0C97.1854 0 125.043 27.1669 126 61.1124C117.173 62.3313 113.932 54.44 104.469 56.0826C105.425 57.7772 106.223 59.525 106.966 61.3253C114.516 60.4249 117.6 67.2555 125.948 66.3026ZM35.7782 39.9309C31.1509 38.0224 25.5171 38.4986 20.6786 41.5704C19.9335 37.122 17.4897 33.1498 14.0323 30.7681C13.5541 30.4496 13.076 30.7681 13.076 31.2969C13.8216 40.7226 8.29037 48.8803 1.48615 56.0821C8.50502 58.2009 14.4586 49.1988 23.4955 52.3227C26.8463 47.5032 30.993 43.2651 35.7782 39.9309ZM62.8939 34.2635C57.043 34.2635 52.0989 37.5456 50.8254 41.8363C50.7169 42.1548 50.8782 42.3652 51.2508 42.2079C52.3131 41.7317 53.483 41.5178 54.8122 41.5178C57.2043 41.5178 59.3309 42.4178 60.5516 43.9031C61.0855 45.7034 61.1383 48.3515 60.4988 49.8333C59.5421 49.62 59.1696 48.8803 58.2133 48.8803C57.2566 48.8803 56.5115 49.5674 54.865 49.5674C53.2155 49.5674 53.0576 48.7752 51.9918 48.7752C50.7154 48.7752 50.5047 50.0437 50.5047 51.5285C50.5047 58.0402 56.511 66.9926 62.8934 66.9926C69.2728 66.9926 75.2787 58.0402 75.2787 51.5285C75.2787 50.0437 74.9614 48.8282 73.6854 48.667C73.046 49.1428 72.409 49.5669 70.9213 49.5669C69.2718 49.5669 68.847 48.8798 67.8903 48.8798C66.7189 48.8798 66.8245 51.3146 65.4434 51.4754C64.5394 49.304 64.4866 46.442 65.2312 43.9546C66.4549 42.4178 68.58 41.5699 70.9736 41.5699C72.2501 41.5699 73.4708 41.7833 74.5356 42.26C74.9081 42.4178 75.066 42.2074 74.9609 41.8884C73.6859 37.5456 68.7419 34.2635 62.8939 34.2635ZM72.2511 43.5841C70.8127 43.5841 69.22 44.0077 68.1542 45.1711C68.0486 45.49 68.0486 45.9663 68.21 46.2322C70.7595 45.3849 72.9927 45.3323 74.1108 46.5512C74.695 46.0194 74.8528 45.5426 74.8528 45.0138C74.8533 44.166 73.9499 43.5841 72.2511 43.5841ZM51.7289 46.5507C52.9496 45.3318 55.5553 45.3839 58.2138 46.3369C58.3194 45.0128 55.9278 43.531 53.5363 43.531C51.7817 43.531 50.931 44.1129 50.931 44.9607C50.9838 45.5421 51.1422 46.0189 51.7289 46.5507ZM92.1338 24.5188C87.5095 24.8378 83.4689 26.4243 80.2237 29.0724C81.6082 25.1533 83.3633 21.7655 85.5961 18.4804C79.6923 19.1174 74.801 21.2367 71.1853 24.9425L68.3689 17.58L74.5889 12.0734L66.2412 11.4919L62.8929 3.75838L59.5416 11.4919L51.194 12.0734L57.4145 17.58L54.5976 24.9425C50.9828 21.2887 46.0911 19.1174 40.1903 18.4804C42.423 21.7655 44.1781 25.2089 45.5597 29.0724C42.3144 26.4243 38.2738 24.8373 33.65 24.5188C36.4142 28.0668 38.8615 31.8813 40.7212 35.9586C40.9324 36.4349 41.3582 36.5927 41.8363 36.3297C48.1654 33.2053 55.2899 31.4021 62.8924 31.4021C70.4422 31.4021 77.5667 33.1498 83.9451 36.3297C84.4232 36.5927 84.8485 36.4349 85.0597 35.9586C86.869 31.8818 89.3692 28.0673 92.1338 24.5188ZM102.236 52.3227C111.326 49.1988 117.283 58.1478 124.299 56.0821C117.494 48.8798 111.965 40.7231 112.709 31.2969C112.761 30.7681 112.23 30.4496 111.806 30.7681C108.351 33.1503 105.904 37.1225 105.159 41.5704C100.376 38.4986 94.7396 38.075 90.062 39.9309C94.8447 43.2651 98.938 47.5032 102.236 52.3227Z" fill="#276044"/>
</svg>
