<svg width="581" height="483" viewBox="0 0 581 483" fill="none" xmlns="http://www.w3.org/2000/svg">
<path d="M142.824 120.25C145.673 121.771 145.673 124.338 142.824 125.859C139.974 127.38 135.319 127.38 132.564 125.764C129.714 124.243 129.714 121.676 132.564 120.155C135.319 118.729 139.974 118.729 142.824 120.25Z" fill="#D2D2D2"/>
<path d="M215.687 135.176C218.537 136.697 218.537 139.264 215.687 140.785C212.837 142.306 208.277 142.306 205.427 140.69C202.577 139.168 202.577 136.602 205.427 135.081C208.182 133.56 212.837 133.56 215.687 135.176Z" fill="#D2D2D2"/>
<path d="M359.039 218.359C388.678 235.471 388.773 263.326 359.419 280.438C329.97 297.55 281.996 297.55 252.356 280.438C222.717 263.326 222.622 235.471 251.976 218.359C281.331 201.247 329.4 201.247 359.039 218.359ZM252.926 280.058C282.186 296.98 329.59 296.98 358.659 280.058C387.728 263.136 387.538 235.661 358.279 218.739C329.02 201.818 281.616 201.818 252.546 218.739C223.572 235.661 223.667 263.136 252.926 280.058Z" fill="#D2D2D2"/>
<path d="M305.935 293.652C285.605 293.652 266.511 289.089 252.071 280.723C237.536 272.357 229.557 261.139 229.557 249.161C229.557 237.278 237.441 226.155 251.786 217.884C266.131 209.613 285.13 204.955 305.46 204.955C325.79 204.955 344.884 209.518 359.229 217.884C373.764 226.25 381.743 237.468 381.743 249.446C381.743 261.33 373.859 272.452 359.514 280.723C345.264 289.089 326.265 293.652 305.935 293.652ZM305.365 206.476C285.415 206.476 266.796 210.944 252.831 219.12C238.961 227.201 231.362 237.848 231.362 249.256C231.362 260.759 239.151 271.502 253.211 279.582C267.271 287.758 285.985 292.226 305.935 292.226C325.885 292.226 344.504 287.758 358.469 279.582C372.339 271.502 379.938 260.854 379.938 249.446C379.938 237.943 372.149 227.201 358.089 219.12C344.029 210.944 325.315 206.476 305.365 206.476Z" fill="#D2D2D2"/>
<path d="M248.098 220.923L136 156.752V125H137.9V155.707L249.048 219.306L248.098 220.923Z" fill="#D2D2D2"/>
<path d="M213.041 135.955L158.409 167.511L159.311 169.075L213.944 137.519L213.041 135.955Z" fill="#D2D2D2"/>
<path d="M157.073 267.604C159.923 269.125 159.923 271.692 157.073 273.213C154.223 274.734 149.663 274.734 146.813 273.118C143.964 271.597 143.964 269.03 146.813 267.509C149.568 265.988 154.223 266.083 157.073 267.604Z" fill="#D2D2D2"/>
<path d="M152.228 271.502L151.563 270.361L239.817 215.983L242.287 216.268L152.228 271.502Z" fill="#D2D2D2"/>
<path d="M112.899 367.71L112.139 366.284L258.246 282.53L259.101 283.86L112.899 367.71Z" fill="#D2D2D2"/>
<path d="M174.838 377.311L135.604 353.925L136.649 352.309L175.883 375.6L174.838 377.311Z" fill="#D2D2D2"/>
<path d="M371.389 227.106L369.584 226.06L534.595 129.662L536.21 130.327L371.389 227.106Z" fill="#D2D2D2"/>
<path d="M364.334 159.381L363.328 161.104L423.606 196.37L424.613 194.647L364.334 159.381Z" fill="#D2D2D2"/>
<path d="M358.894 279.585L358 281.154L499.223 362.226L500.117 360.657L358.894 279.585Z" fill="#D2D2D2"/>
<path d="M399.202 302.605L338.023 337.447L338.915 339.017L400.094 304.175L399.202 302.605Z" fill="#D2D2D2"/>
<path d="M404.448 388.814H402.643V365.903L454.227 336.147L455.177 337.763L404.448 366.949V388.814Z" fill="#D2D2D2"/>
<path d="M180.538 374.364C183.388 375.885 183.388 378.452 180.538 379.973C177.688 381.494 173.128 381.494 170.278 379.878C167.428 378.357 167.428 375.79 170.278 374.269C173.033 372.748 177.688 372.843 180.538 374.364Z" fill="#D2D2D2"/>
<path d="M114.894 365.333C117.744 366.854 117.744 369.421 114.894 370.942C112.044 372.463 107.389 372.463 104.635 370.847C101.785 369.326 101.785 366.759 104.635 365.238C107.389 363.717 112.044 363.717 114.894 365.333Z" fill="#D2D2D2"/>
<path d="M406.918 387.579C409.768 389.1 409.768 391.666 406.918 393.188C404.068 394.709 399.508 394.709 396.658 393.092C393.808 391.571 393.808 389.005 396.658 387.484C399.413 385.962 404.068 386.058 406.918 387.579Z" fill="#D2D2D2"/>
<path d="M343.839 336.718C346.689 338.239 346.689 340.806 343.839 342.327C340.989 343.848 336.43 343.848 333.58 342.232C330.73 340.711 330.73 338.144 333.58 336.623C336.43 335.102 341.084 335.197 343.839 336.718Z" fill="#D2D2D2"/>
<path d="M504.101 358.393C506.951 359.914 506.951 362.481 504.101 364.002C501.251 365.523 496.691 365.523 493.841 363.907C490.991 362.386 490.991 359.819 493.841 358.298C496.596 356.777 501.251 356.777 504.101 358.393Z" fill="#D2D2D2"/>
<path d="M541.91 126.905C544.76 128.426 544.76 130.993 541.91 132.514C539.06 134.035 534.5 134.035 531.65 132.419C528.8 130.898 528.8 128.331 531.65 126.81C534.405 125.289 539.06 125.289 541.91 126.905Z" fill="#D2D2D2"/>
<path d="M367.589 156.566C370.629 158.182 370.629 160.844 367.589 162.46C364.549 164.076 359.704 164.076 356.664 162.365C353.624 160.749 353.624 158.087 356.664 156.471C359.609 154.855 364.549 154.855 367.589 156.566Z" fill="#D2D2D2"/>
<g filter="url(#filter0_d)">
<path d="M497.273 315.449C521.659 315.449 541.428 312.57 541.428 309.019C541.428 305.468 521.659 302.589 497.273 302.589C472.887 302.589 453.118 305.468 453.118 309.019C453.118 312.57 472.887 315.449 497.273 315.449Z" fill="#F3F3F3"/>
</g>
<path d="M489.759 265.962L473.74 274.821L468.776 274.036L469.566 279.98H470.13C470.13 279.98 473.176 280.877 475.545 279.082C475.545 279.082 496.754 277.849 499.574 274.148C499.574 274.26 495.851 266.971 489.759 265.962Z" fill="#F7C154"/>
<path d="M504.087 228.618C504.087 228.618 500.364 230.973 498.22 239.047C495.964 247.234 489.308 265.962 489.308 265.962C489.308 265.962 497.995 270.56 499.913 275.494C499.913 275.494 508.712 252.504 510.517 242.972C512.322 233.44 508.712 230.076 506.907 227.609C507.02 227.609 505.44 227.609 504.087 228.618Z" fill="#AE4C00"/>
<path d="M537.141 287.605C537.141 287.605 535.674 289.736 530.936 290.409C529.131 290.633 526.988 290.633 524.28 290.297C518.188 289.399 509.389 288.39 503.41 287.605C499.349 287.157 496.528 286.82 496.528 286.82C496.528 286.82 496.641 285.923 496.754 284.465C497.544 275.045 500.477 240.505 502.959 233.44C505.779 225.366 514.127 222.674 517.737 222.786C517.737 222.786 526.537 224.468 531.049 231.87C532.29 233.888 533.305 238.823 534.095 244.879C536.239 261.7 537.141 287.605 537.141 287.605Z" fill="#FF6A18"/>
<path d="M537.141 287.605C537.141 287.605 535.674 289.736 530.936 290.409C530.372 290.297 529.921 290.184 529.921 290.184C530.824 280.652 528.342 278.746 528.342 278.746C523.942 286.035 503.974 286.259 503.974 286.259L503.41 287.493C499.349 287.044 496.528 286.708 496.528 286.708C496.528 286.708 496.641 285.811 496.754 284.353C502.733 280.092 513.45 275.718 514.578 275.494C515.932 275.269 522.137 261.027 522.137 261.027L531.275 235.122C531.275 235.122 532.403 239.047 533.982 244.879C536.239 261.7 537.141 287.605 537.141 287.605Z" fill="#CC5E15"/>
<path d="M461.218 299.717C461.218 299.717 456.818 301.96 457.495 303.866C458.172 305.885 459.977 307.118 463.812 306.67C467.648 306.109 474.53 305.436 474.53 305.436L461.218 299.717Z" fill="#372900"/>
<path d="M480.847 283.905C480.847 283.905 467.31 280.652 459.3 286.035C451.29 291.418 457.382 302.296 470.581 304.763C483.78 307.23 486.713 307.455 486.713 307.455L493.482 286.484L480.847 283.905Z" fill="#2B0459"/>
<path d="M506.343 198.227C504.199 199.573 501.718 202.376 502.62 207.535C503.523 212.694 501.266 213.591 501.266 213.591C501.266 213.591 502.62 224.581 509.953 221.777C510.855 221.441 509.953 225.702 510.066 225.814C513.676 229.739 520.557 224.469 520.557 224.469C520.557 224.469 518.076 218.525 518.865 217.067C519.655 215.609 525.07 209.89 521.347 203.273C517.511 196.769 510.517 195.536 506.343 198.227Z" fill="#F7C154"/>
<path d="M521.347 199.573C521.347 199.573 521.347 196.993 516.609 194.414C511.758 191.835 506.23 192.62 501.605 195.311C496.98 198.003 499.574 203.273 501.718 204.17C503.861 205.068 508.035 202.6 511.307 203.049C514.578 203.498 511.758 207.423 513.45 209.105C515.142 210.787 515.594 210.563 515.594 210.563C515.594 210.563 515.819 208.095 517.624 208.208C519.429 208.208 519.542 212.469 518.076 213.815C516.496 215.161 515.594 214.712 515.594 214.712L518.64 217.628C518.752 217.628 530.259 203.61 521.347 199.573Z" fill="#1D0076"/>
<path d="M536.126 288.615C536.126 288.615 538.607 299.492 532.741 307.567C526.762 315.641 504.651 304.875 496.754 306.109C488.857 307.455 486.375 310.034 486.375 310.034C486.375 310.034 477.801 305.324 478.365 296.913C478.817 288.502 485.811 285.25 496.754 286.708C507.358 288.054 532.967 291.306 536.126 288.615Z" fill="#340069"/>
<g filter="url(#filter1_d)">
<path d="M479.945 283.792L491.565 281.774L514.691 286.035L497.205 289.624L479.945 283.792Z" fill="#234E8D"/>
</g>
<path d="M510.856 308.576C510.968 306.557 509.953 304.875 504.989 304.875C503.523 304.875 501.831 305.66 500.026 305.772C498.221 305.885 487.278 304.202 484.909 308.576C482.427 313.062 488.519 314.295 496.528 313.398C504.538 312.501 510.517 312.501 510.856 308.576Z" fill="#572A11"/>
<g filter="url(#filter2_d)">
<path d="M463.248 259.457L469.791 283.568L497.205 289.624L491.452 264.616L463.248 259.457Z" fill="#668FCD"/>
</g>
<path d="M515.368 268.204L500.025 279.643L494.723 279.531L496.415 285.699H497.092C497.092 285.699 500.364 286.259 502.507 284.017C502.507 284.017 524.28 279.755 526.649 275.494C526.649 275.382 521.798 268.429 515.368 268.204Z" fill="#F7C154"/>
<path d="M533.305 242.636C532.854 252.28 526.649 275.606 526.649 275.606C525.634 273.811 523.829 272.354 521.911 271.232C518.752 269.326 515.255 268.204 515.255 268.204C515.255 268.204 519.316 248.691 520.445 240.393C521.573 231.982 524.957 229.291 524.957 229.291C526.198 228.169 527.665 227.945 527.665 227.945C528.567 228.842 529.695 229.851 530.823 231.533C532.403 233.664 533.644 237.028 533.305 242.636Z" fill="#AE4C00"/>
<path d="M533.305 242.636C532.854 252.28 526.649 275.606 526.649 275.606C525.634 273.812 523.829 272.354 521.911 271.232C524.055 266.186 526.988 258.224 528.454 249.813C530.485 238.711 531.162 234.898 530.823 231.421C532.403 233.664 533.644 237.029 533.305 242.636Z" fill="#994105"/>
<path d="M49.5809 245.254C76.9637 245.254 99.1619 223.483 99.1619 196.627C99.1619 169.771 76.9637 148 49.5809 148C22.1981 148 0 169.771 0 196.627C0 223.483 22.1981 245.254 49.5809 245.254Z" fill="#D7F0E4"/>
<path d="M49.1104 179.686V318.821" stroke="#ABDCC5" stroke-width="3" stroke-miterlimit="10" stroke-linecap="round"/>
<path d="M29.4976 209.646C29.4976 209.646 34.8322 223.92 48.3258 224.391" stroke="#ABDCC5" stroke-width="3" stroke-miterlimit="10" stroke-linecap="round"/>
<path d="M62.2899 203.529C62.2899 203.529 58.8381 212.94 49.7378 213.254" stroke="#ABDCC5" stroke-width="3" stroke-miterlimit="10" stroke-linecap="round"/>
<path d="M61.8192 230.979C61.8192 230.979 58.3674 240.391 49.2671 240.705" stroke="#ABDCC5" stroke-width="3" stroke-miterlimit="10" stroke-linecap="round"/>
<g filter="url(#filter3_d)">
<path d="M446.163 145.688C464.713 145.688 479.75 143.533 479.75 140.873C479.75 138.214 464.713 136.058 446.163 136.058C427.614 136.058 412.577 138.214 412.577 140.873C412.577 143.533 427.614 145.688 446.163 145.688Z" fill="#F3F3F3"/>
</g>
<g filter="url(#filter4_d)">
<path d="M388.777 144.083C399.175 144.083 407.603 142.526 407.603 140.606C407.603 138.685 399.175 137.128 388.777 137.128C378.38 137.128 369.952 138.685 369.952 140.606C369.952 142.526 378.38 144.083 388.777 144.083Z" fill="#F3F3F3"/>
</g>
<path d="M400.971 135.898C400.116 134.721 399.527 135.042 399.42 134.721C399.42 134.667 399.42 134.667 399.42 134.56C401.56 133.597 401.72 131.457 401.453 130.12C401.078 128.141 398.779 126.322 396.051 126.108C393.323 125.894 384.98 123.968 384.766 123.219C384.552 122.47 385.569 119.634 383.108 117.922C380.648 116.21 379.311 116.799 378.295 117.12C378.295 117.12 376.37 117.922 375.728 120.169C375.033 122.416 372.786 119.848 372.947 122.309C373.107 124.77 374.337 126.429 376.798 125.733L379.632 125.466C379.632 125.466 379.793 127.338 380.648 129.264C379.846 129.692 378.135 130.708 377.279 131.939C376.691 132.795 376.423 133.758 376.477 134.4C375.247 135.149 374.177 135.951 374.444 136.593C374.979 137.717 376.637 136.058 377.974 135.844C379.151 135.684 383.75 135.791 385.783 133.651C387.922 134.346 390.489 134.721 393.698 134.988C393.965 135.363 394.393 135.684 394.874 135.951C397.602 137.449 398.458 136.54 398.939 137.503C399.42 138.466 399.313 141.248 400.757 140.82C402.201 140.285 401.827 137.021 400.971 135.898ZM380.006 131.939C380.381 131.725 380.862 131.564 381.29 131.404C380.648 131.885 379.9 132.474 379.204 132.902C379.472 132.474 379.793 132.099 380.006 131.939Z" fill="#FF7D18"/>
<path d="M433.381 34.0884C433.381 34.0884 432.151 36.4424 431.616 40.6153C431.082 44.8418 423.808 59.2331 423.808 59.2331C423.808 59.2331 427.552 60.0356 427.926 63.7805C427.926 63.7805 433.328 60.0356 434.558 55.1136C435.842 50.1917 434.291 35.5329 433.381 34.0884Z" fill="#0BB1BC"/>
<g filter="url(#filter5_d)">
<path d="M430.386 128.461C430.386 128.461 427.659 134.935 427.659 136.754C427.659 138.573 427.445 139.482 427.445 140.338C427.445 141.194 418.085 141.034 416.481 141.034C414.877 141.034 413.753 140.873 413.753 140.338C413.753 139.803 419.262 138.305 421.027 137.128C422.792 135.951 424.503 127.445 424.503 127.445L430.386 128.461Z" fill="#FD8A97"/>
</g>
<g filter="url(#filter6_d)">
<path d="M462.208 120.276C462.208 120.276 468.145 124.021 469.963 124.342C471.781 124.663 472.637 125.038 473.439 125.145C474.241 125.305 472.53 134.453 472.263 136.058C471.995 137.663 471.621 138.733 471.14 138.68C470.605 138.573 470.07 132.902 469.214 130.976C468.358 129.05 460.283 125.894 460.283 125.894L462.208 120.276Z" fill="#FD8A97"/>
</g>
<path d="M442.099 111.074C445.949 126.268 461.941 130.013 461.941 130.013L468.305 120.009C468.305 120.009 454.667 113.642 452.635 110.218C450.549 106.794 451.084 74.9621 451.084 74.9621L438.088 65.1182L435.093 65.2252C435.039 65.2252 438.248 95.9338 442.099 111.074Z" fill="#210549"/>
<path d="M455.844 65.3321H452.635L435.039 65.2251C435.039 65.2251 432.686 34.677 433.381 34.035C434.077 33.393 441.457 30.3435 441.457 30.3435L446.645 30.397C446.645 30.397 454.239 32.858 454.346 33.393C454.346 33.5535 454.507 36.0144 454.667 39.5454C455.042 48.9078 455.844 65.3321 455.844 65.3321Z" fill="#0BB1BC"/>
<path d="M438.462 15.2567C437.232 16.0057 435.788 17.6642 436.269 20.6601C436.751 23.6561 435.467 24.1911 435.467 24.1911C435.467 24.1911 436.269 30.5575 440.494 28.8991C441.029 28.6851 440.494 31.146 440.601 31.253C442.687 33.5535 446.645 30.504 446.645 30.504C446.645 30.504 445.201 27.0801 445.629 26.2241C446.056 25.3681 449.212 22.0511 447.073 18.2527C444.88 14.4542 440.815 13.7052 438.462 15.2567Z" fill="#F7C154"/>
<path d="M455.844 65.332H452.635H452.581C452.581 65.332 452.26 55.6486 450.709 51.5292C449.158 47.4097 452.1 37.2983 452.1 37.2983L454.614 39.6523C455.041 48.9077 455.844 65.332 455.844 65.332Z" fill="#007A82"/>
<path d="M435.735 25.4216C435.735 25.4216 435.039 29.541 438.141 30.3435C441.19 31.146 443.276 28.471 443.81 25.2611C443.81 25.2611 443.222 24.7796 442.206 26.3846C441.19 27.9895 439.318 27.6685 438.943 27.187C438.569 26.7591 438.034 24.6726 435.735 25.4216Z" fill="#1D0076"/>
<path d="M450.709 37.5124C450.709 37.5124 451.833 33.7674 453.651 33.3394C455.469 32.9114 457.609 37.4054 457.609 38.6359C457.609 39.8663 459.801 45.7513 459.801 48.5867C459.801 51.3687 458.411 53.9902 458.411 53.9902L450.709 37.5124Z" fill="#0BB1BC"/>
<path d="M447.714 19.0017C447.714 19.0017 447.768 17.4502 446.27 15.9522C445.04 14.7217 442.634 12.9563 439.478 13.8657C436.323 14.7752 435.146 17.0222 434.504 16.9687C434.504 16.9687 435.36 18.2527 437.82 18.1992C440.28 18.1457 442.901 17.5572 442.901 17.5572C442.901 17.5572 441.35 19.6437 442.099 20.7672C442.901 21.8907 442.794 22.6931 442.794 22.6931L443.489 22.8001C443.489 22.8001 443.436 21.4092 444.612 21.1417C445.843 20.8742 445.522 23.2281 444.987 23.9771C444.452 24.7261 443.757 24.6191 443.757 24.6191L445.575 26.3311C445.522 26.3311 449.747 21.9977 447.714 19.0017Z" fill="#1D0076"/>
<path d="M436.935 45.6533C436.935 45.6533 437.643 45.4274 438.038 43.5512C438.038 43.5512 449.292 46.5685 452.81 47.2202C456.289 47.8361 457.477 48.8352 459.034 51.1031C460.591 53.3709 456.351 55.597 450.528 52.8676C444.666 50.1023 436.935 45.6533 436.935 45.6533Z" fill="#F7C154"/>
<path d="M434.624 37.4087C434.624 37.4087 433.728 36.9761 433.325 37.1296C432.922 37.2831 432.192 44.4566 432.187 45.2465C432.17 46.4674 436.41 47.6073 436.637 47.1231C437.321 45.7899 437.645 39.5598 437.51 38.9649C437.376 38.3699 434.624 37.4087 434.624 37.4087Z" fill="#5115B2"/>
<path d="M438.038 43.5512C438.038 43.5512 434.685 40.9595 434.339 40.8637C434.029 40.7283 432.323 41.4223 431.766 41.6404C431.249 41.8943 430.775 42.9792 431.121 43.075C431.466 43.1708 431.916 42.3522 431.916 42.3522L432.513 42.1699C432.513 42.1699 431.463 43.0952 431.335 43.5563C431.247 44.0532 431.629 44.1092 431.629 44.1092C431.629 44.1092 431.462 44.5345 431.664 44.7892C431.827 45.008 432.093 45.0321 432.093 45.0321C432.093 45.0321 432.073 45.374 432.312 45.589C432.55 45.8039 433.158 45.8483 433.306 45.7649C433.453 45.6816 433.664 45.3677 433.664 45.3677L433.72 44.9861C433.72 44.9861 434.848 45.5717 435.719 45.5646C436.554 45.5973 437.011 45.6494 437.011 45.6494C437.011 45.6494 438.642 44.9593 438.038 43.5512Z" fill="#F7C154"/>
<path d="M452.742 81.6494C448.891 89.8348 439.425 103.156 437.285 109.416C435.093 115.675 433.542 130.227 433.542 130.227L430.547 129.585L421.401 127.552C421.401 127.552 426.482 102.835 429.584 94.9173C432.686 86.9994 440.067 72.7685 440.067 72.7685L435.467 65.1716L452.581 65.3321L455.844 65.3856C455.844 65.3321 456.539 73.464 452.742 81.6494Z" fill="#340069"/>
<path d="M423.808 59.2332C423.808 59.2332 416.535 67.0976 412.149 73.571C412.149 73.571 410.277 75.3365 408.994 76.139C407.71 76.9415 408.298 78.4394 408.298 78.6534C408.298 78.8674 408.245 79.9909 408.405 80.3654C408.566 80.7399 409.849 81.2749 410.01 81.6494C410.17 82.0239 411.561 81.2749 412.47 80.8469C413.379 80.4189 414.877 78.8139 415.037 77.3695C415.198 75.925 426.696 66.7231 428.033 63.4061C428.033 63.3526 428.087 59.5542 423.808 59.2332Z" fill="#F7C154"/>
<path d="M410.438 80.0979C410.438 80.0979 411.08 84.4848 404.608 93.3123C398.19 102.14 384.66 117.333 384.766 123.218" stroke="#A7005C" stroke-miterlimit="10"/>
<path d="M380.595 118.457C380.595 118.457 380.114 122.202 383.109 124.877C386.104 127.552 389.473 127.124 390.168 126.107C390.863 125.091 389.259 123.111 386.959 122.523C384.659 121.934 385.355 119.741 383.697 118.35C382.092 116.959 380.702 117.922 380.595 118.457Z" fill="#5D33B2"/>
<path d="M400.009 128.087C400.009 128.087 400.864 126.91 403.218 127.873C405.571 128.836 406.908 125.947 407.924 127.445C408.94 128.943 406.159 130.334 404.341 129.745C402.522 129.21 401.72 128.889 401.292 129.585C400.864 130.28 400.009 128.087 400.009 128.087Z" fill="#5D33B2"/>
<path d="M452.742 81.6496C448.891 89.835 439.425 103.156 437.286 109.416C435.093 115.675 433.542 130.227 433.542 130.227L430.547 129.585C430.814 126.375 432.205 114.017 436.751 105.778C441.992 96.2549 450.656 84.5385 451.833 74.7481C452.474 69.5587 452.635 66.7767 452.688 65.3857L455.951 65.4392C455.844 65.3322 456.539 73.4641 452.742 81.6496Z" fill="#2A0259"/>
<path d="M153.978 197.045C153.978 197.045 153.292 194.13 153.978 191.386C154.664 188.643 153.978 185.728 154.835 185.556C155.607 185.385 156.036 188.986 156.036 188.986C156.036 188.986 161.866 183.67 163.838 183.156C165.81 182.641 163.409 185.385 163.323 185.728C163.238 186.071 164.524 186.499 164.695 187.871C164.867 189.243 164.267 190.701 164.352 191.558C164.438 192.415 164.095 194.644 163.323 195.931C162.552 197.217 159.637 200.56 157.836 200.989C155.95 201.332 153.978 197.045 153.978 197.045Z" fill="#A3521C"/>
<path d="M153.549 197.131L157.836 199.532C158.608 199.96 159.465 199.703 159.894 198.931L168.467 183.67C168.896 182.898 168.639 181.955 167.867 181.612L162.552 178.783C161.78 178.354 160.837 178.697 160.494 179.469L152.949 195.159C152.606 195.845 152.863 196.702 153.549 197.131Z" fill="#402289"/>
<path d="M160.322 181.269L154.064 194.387C153.721 195.073 153.978 195.845 154.664 196.188L156.464 197.131C157.15 197.474 157.922 197.217 158.265 196.616L165.552 183.842C165.981 183.156 165.638 182.298 164.952 181.955L162.123 180.669C161.437 180.326 160.665 180.669 160.322 181.269Z" fill="#AEE5FF"/>
<path d="M114.024 420.993C144.092 420.993 168.468 416.003 168.468 409.847C168.468 403.691 144.092 398.701 114.024 398.701C83.9556 398.701 59.5803 403.691 59.5803 409.847C59.5803 416.003 83.9556 420.993 114.024 420.993Z" fill="#F3F3F3"/>
<g filter="url(#filter7_d)">
<path d="M146.176 322.223C143.261 329.768 137.345 335.941 129.285 338.942L125.427 340.399L118.825 342.886L107.937 231.083L115.224 232.369C115.224 232.369 137.945 264.007 147.376 305.418C148.748 311.163 148.233 316.993 146.176 322.223Z" fill="#FD8A97"/>
</g>
<path d="M146.176 322.223C143.261 329.768 137.345 335.941 129.285 338.942L125.427 340.399C118.225 317.164 112.138 243.772 112.138 243.772C116.082 247.459 129.285 322.994 146.176 322.223Z" fill="#E36B79"/>
<path d="M105.279 372.722C105.279 372.722 109.909 392.871 110.337 398.187C110.766 403.502 109.737 404.617 109.737 404.617C109.737 404.617 113.51 406.503 115.482 407.961C117.539 409.418 127.828 409.933 129.114 408.561C130.486 407.189 119.34 402.045 118.054 398.272C116.768 394.5 116.939 373.666 116.939 373.666L105.279 372.722Z" fill="#F7C154"/>
<path d="M116.682 178.783C116.682 178.783 129.543 199.275 133.658 209.735C133.658 209.735 150.205 202.275 154.149 195.845L157.922 200.904C157.922 200.904 138.888 221.824 130.229 220.623C121.569 219.423 113.767 192.073 113.767 192.073L116.682 178.783Z" fill="#EFAE2C"/>
<path d="M108.622 332.254C108.622 332.254 90.6175 342.457 85.6447 344.343C80.6719 346.229 79.3001 345.629 79.3001 345.629C79.3001 345.629 78.5284 349.745 77.7568 352.145C76.9851 354.546 79.3858 364.492 81.1006 365.435C82.8153 366.378 84.6158 354.203 87.7881 351.974C91.0462 349.659 111.109 343.915 111.109 343.915L108.622 332.254Z" fill="#F7C154"/>
<path d="M83.5013 345.115C83.5013 345.115 80.0718 344.772 76.2993 345.372H76.2136C74.2416 345.715 72.9555 347.515 73.2985 349.487C73.5557 351.031 73.8986 352.745 74.3273 354.117C75.2704 357.375 73.8986 358.147 75.8706 363.72C77.8426 369.293 80.329 372.294 81.2721 371.865C82.2152 371.436 84.0157 358.833 84.0157 358.833C84.0157 358.833 82.1295 358.576 81.1864 355.489C80.329 352.574 80.329 347.344 83.5013 345.115Z" fill="#340069"/>
<g filter="url(#filter8_d)">
<path d="M123.712 199.618L116.168 228.768L115.224 232.284L99.9631 230.912L91.9894 193.016L89.7603 182.384C89.7603 182.384 94.3901 176.04 100.992 171.324L116.253 178.526C116.253 178.526 122.169 190.786 123.712 199.618Z" fill="#668FCD"/>
</g>
<g filter="url(#filter9_d)">
<path d="M114.414 228.051C115.393 228.491 115.954 229.563 115.676 230.6C115.415 231.573 114.492 232.218 113.488 232.127L107.105 231.554C102.861 231.172 99.3637 228.064 98.4864 223.894L92.3961 194.949C92.1483 193.771 92.6114 192.558 93.5805 191.844C95.5477 190.396 98.3695 191.708 98.5867 194.141C99.2604 201.69 100.826 214.651 103.907 219.509C106.705 223.986 111.388 226.694 114.414 228.051Z" fill="#446FB0"/>
</g>
<path d="M135.544 145.86C135.544 145.86 137.516 149.289 136.316 156.148C135.116 163.007 129.714 172.353 130.571 176.554C130.571 176.554 119.083 175.782 111.28 167.98C105.45 161.979 128.171 144.231 135.544 145.86Z" fill="#402289"/>
<path d="M133.915 142.43C135.716 145.345 137.002 150.318 132.801 156.062C128.6 161.807 130.829 164.293 130.829 164.293C130.829 164.293 126.971 169.095 121.826 169.009C116.682 168.923 115.053 165.751 115.053 165.751C115.053 165.751 114.367 170.981 115.739 174.839L104.336 167.723C104.336 167.723 107.594 161.035 107.594 158.806C107.679 156.748 104.164 145.431 112.738 139.686C121.226 133.942 130.486 136.771 133.915 142.43Z" fill="#F7C154"/>
<path d="M101.078 153.748C102.449 158.892 106.308 164.636 115.31 169.352C115.31 169.352 114.796 162.407 121.483 155.291C128.171 148.175 133.486 156.405 135.63 148.946C137.773 141.487 131.943 135.142 124.227 133.856C114.881 132.399 96.6191 136.857 101.078 153.748Z" fill="#340069"/>
<path d="M100.992 171.324L104.164 166.694C104.164 166.694 114.539 172.353 116.253 175.096C117.882 177.84 117.368 180.669 117.368 180.669L100.992 171.324Z" fill="#402289"/>
<g filter="url(#filter10_d)">
<path d="M132.372 375.123L110.166 375.552L96.7049 375.809C96.7049 375.809 82.9868 291.957 82.9868 267.008C82.9868 242.058 99.9629 230.998 99.9629 230.998L102.964 231.255L110.68 231.855L125.084 337.999L132.372 375.123Z" fill="#FD8A97"/>
</g>
<path d="M110.166 375.552L96.7049 375.809C96.7049 375.809 82.9868 291.957 82.9868 267.008C82.9868 242.058 99.9629 230.998 99.9629 230.998L102.964 231.255C99.1913 238.714 84.0157 259.205 94.7329 274.981C106.393 292.043 97.4765 298.388 93.5326 304.732L110.166 375.552Z" fill="#E36B79"/>
<path d="M90.3604 232.198C90.3604 232.198 95.2474 242.658 95.4189 253.289L99.2771 252.603C99.2771 252.603 96.8764 240.6 93.2754 232.969L90.3604 232.198Z" fill="#340069"/>
<path d="M89.7601 182.47C89.7601 182.47 94.5614 181.527 97.648 186.671C100.735 191.729 88.817 225.51 88.817 225.51L112.738 218.651C112.738 218.651 113.509 216.079 114.796 212.907C116.082 209.649 116.853 209.734 117.025 210.849C117.196 211.964 116.253 214.964 116.253 214.964C116.253 214.964 119.597 213.678 121.397 213.335C123.198 212.992 124.827 212.65 125.684 212.907C126.542 213.164 125.256 213.936 125.256 213.936C125.256 213.936 126.97 214.021 127.485 214.536C128.085 215.05 126.113 215.479 126.113 215.479C126.113 215.479 128.171 215.65 128.256 216.165C128.342 216.679 126.113 217.451 126.113 217.451C126.113 217.451 127.485 217.365 127.485 217.88C127.485 218.394 119.511 223.452 116.596 223.795C113.681 224.138 93.7898 236.656 84.5301 237.085C75.2704 237.514 78.7856 226.025 78.7856 226.025L87.3594 191.386L89.7601 182.47Z" fill="#F7C154"/>
<path d="M88.8171 225.51C88.8171 225.51 82.9869 229.797 81.0149 241.286C79.0429 252.775 79.3002 257.919 79.3002 257.919L75.9564 258.091C76.0421 258.091 73.9844 230.997 88.8171 225.51Z" fill="#340069"/>
<path d="M103.735 288.013C98.0767 301.217 77.7568 300.874 73.4699 292.129C73.127 291.443 72.8698 290.843 72.5268 290.157C66.0107 274.638 71.9267 256.548 71.9267 256.548L100.134 251.489L102.535 251.06C102.449 251.06 109.394 274.81 103.735 288.013Z" fill="#340069"/>
<path d="M103.735 288.013C98.0768 301.217 77.7569 300.874 73.47 292.129C73.127 291.443 72.8698 290.843 72.5269 290.157C76.5565 291.872 81.7008 292.472 87.874 289.814C101.935 283.898 100.649 258.262 100.049 251.489L102.449 251.06C102.449 251.06 109.394 274.81 103.735 288.013Z" fill="#280354"/>
<path d="M110.68 400.93C110.68 400.93 109.394 404.188 108.88 407.961C108.794 408.818 108.708 409.418 108.622 409.933C108.537 410.876 109.137 411.647 110.08 411.819C111.795 412.076 114.624 412.419 116.767 412.419C120.197 412.419 120.54 413.962 126.456 413.705C132.372 413.448 135.887 411.905 135.801 410.79C135.716 409.761 123.969 403.845 123.969 403.845C123.969 403.845 123.198 406.246 120.026 406.246C116.853 406.16 111.88 404.617 110.68 400.93Z" fill="#340069"/>
<circle cx="164.826" cy="147.806" r="7" fill="#C4C4C4"/>
<path d="M309.71 142.78C301.226 137.931 293.645 137.751 288.411 141.343L282.274 144.217L282.996 148.167C281.732 151.22 281.01 154.812 281.01 159.122C281.01 171.514 287.689 191.089 294.548 207.97L301.768 245.324L309.71 241.373C309.71 241.373 338.409 217.847 338.409 192.166C338.229 173.848 325.413 151.759 309.71 142.78Z" fill="#D03039"/>
<path d="M330.287 195.758C330.287 221.439 301.587 244.964 301.587 244.964C301.587 244.964 273.068 188.574 273.068 162.894C273.068 144.755 285.884 137.572 301.768 146.731C317.471 155.71 330.287 177.799 330.287 195.758Z" fill="#F25962"/>
<path d="M312.056 185.342C312.056 191.986 307.363 194.501 301.587 191.268C295.811 188.035 291.118 179.954 291.118 173.309C291.118 166.665 295.811 164.15 301.587 167.383C307.544 170.795 312.056 178.697 312.056 185.342Z" fill="white"/>
<path d="M305.017 189.832C299.241 186.599 294.548 178.518 294.548 171.873C294.548 169.359 294.954 167.094 296.218 165.837C293.149 166.196 291.073 169.063 291.073 173.553C291.073 180.198 295.992 188.036 301.768 191.448C305.197 193.423 308.266 193.244 310.251 191.268C308.627 191.268 306.822 190.909 305.017 189.832Z" fill="#D03039"/>
<path d="M234.436 53.8597C249.589 53.8597 261.872 41.8028 261.872 26.9299C261.872 12.0569 249.589 0 234.436 0C219.284 0 207 12.0569 207 26.9299C207 41.8028 219.284 53.8597 234.436 53.8597Z" fill="#EEF0D7"/>
<path d="M234.233 17.5298V94.661" stroke="#C1C59B" stroke-width="2" stroke-miterlimit="10" stroke-linecap="round"/>
<path d="M223.36 34.0942C223.36 34.0942 226.307 41.97 233.776 42.224" stroke="#C1C59B" stroke-width="2" stroke-miterlimit="10" stroke-linecap="round"/>
<path d="M241.448 30.7407C241.448 30.7407 239.517 35.9743 234.538 36.1267" stroke="#C1C59B" stroke-width="2" stroke-miterlimit="10" stroke-linecap="round"/>
<path d="M241.244 45.9839C241.244 45.9839 239.314 51.2174 234.334 51.3699" stroke="#C1C59B" stroke-width="2" stroke-miterlimit="10" stroke-linecap="round"/>
<path d="M314.441 414.077C339.538 414.077 359.882 394.137 359.882 369.539C359.882 344.941 339.538 325 314.441 325C289.345 325 269 344.941 269 369.539C269 394.137 289.345 414.077 314.441 414.077Z" fill="#D7F0E4"/>
<path d="M314.01 354.022V481.46" stroke="#ABDCC5" stroke-width="3" stroke-miterlimit="10" stroke-linecap="round"/>
<path d="M296.035 381.464C296.035 381.464 300.924 394.538 313.291 394.969" stroke="#ABDCC5" stroke-width="3" stroke-miterlimit="10" stroke-linecap="round"/>
<path d="M326.089 375.86C326.089 375.86 322.925 384.481 314.585 384.768" stroke="#ABDCC5" stroke-width="3" stroke-miterlimit="10" stroke-linecap="round"/>
<path d="M325.658 401.003C325.658 401.003 322.494 409.624 314.154 409.911" stroke="#ABDCC5" stroke-width="3" stroke-miterlimit="10" stroke-linecap="round"/>
<path d="M548.615 156.508C566.076 156.508 580.23 142.739 580.23 125.754C580.23 108.769 566.076 95 548.615 95C531.155 95 517 108.769 517 125.754C517 142.739 531.155 156.508 548.615 156.508Z" fill="#EEF0D7"/>
<path d="M548.315 115.04V203.036" stroke="#C1C59B" stroke-width="2" stroke-miterlimit="10" stroke-linecap="round"/>
<path d="M535.809 133.988C535.809 133.988 539.211 143.016 547.815 143.313" stroke="#C1C59B" stroke-width="2" stroke-miterlimit="10" stroke-linecap="round"/>
<path d="M556.719 130.119C556.719 130.119 554.518 136.071 548.715 136.27" stroke="#C1C59B" stroke-width="2" stroke-miterlimit="10" stroke-linecap="round"/>
<path d="M556.419 147.48C556.419 147.48 554.218 153.433 548.415 153.631" stroke="#C1C59B" stroke-width="2" stroke-miterlimit="10" stroke-linecap="round"/>
<defs>
<filter id="filter0_d" x="423.118" y="292.589" width="148.31" height="72.8607" filterUnits="userSpaceOnUse" color-interpolation-filters="sRGB">
<feFlood flood-opacity="0" result="BackgroundImageFix"/>
<feColorMatrix in="SourceAlpha" type="matrix" values="0 0 0 0 0 0 0 0 0 0 0 0 0 0 0 0 0 0 127 0"/>
<feOffset dy="20"/>
<feGaussianBlur stdDeviation="15"/>
<feColorMatrix type="matrix" values="0 0 0 0 0 0 0 0 0 0 0 0 0 0 0 0 0 0 0.04 0"/>
<feBlend mode="normal" in2="BackgroundImageFix" result="effect1_dropShadow"/>
<feBlend mode="normal" in="SourceGraphic" in2="effect1_dropShadow" result="shape"/>
</filter>
<filter id="filter1_d" x="449.945" y="271.774" width="94.7464" height="67.85" filterUnits="userSpaceOnUse" color-interpolation-filters="sRGB">
<feFlood flood-opacity="0" result="BackgroundImageFix"/>
<feColorMatrix in="SourceAlpha" type="matrix" values="0 0 0 0 0 0 0 0 0 0 0 0 0 0 0 0 0 0 127 0"/>
<feOffset dy="20"/>
<feGaussianBlur stdDeviation="15"/>
<feColorMatrix type="matrix" values="0 0 0 0 0 0 0 0 0 0 0 0 0 0 0 0 0 0 0.04 0"/>
<feBlend mode="normal" in2="BackgroundImageFix" result="effect1_dropShadow"/>
<feBlend mode="normal" in="SourceGraphic" in2="effect1_dropShadow" result="shape"/>
</filter>
<filter id="filter2_d" x="433.248" y="249.457" width="93.9567" height="90.1666" filterUnits="userSpaceOnUse" color-interpolation-filters="sRGB">
<feFlood flood-opacity="0" result="BackgroundImageFix"/>
<feColorMatrix in="SourceAlpha" type="matrix" values="0 0 0 0 0 0 0 0 0 0 0 0 0 0 0 0 0 0 127 0"/>
<feOffset dy="20"/>
<feGaussianBlur stdDeviation="15"/>
<feColorMatrix type="matrix" values="0 0 0 0 0 0 0 0 0 0 0 0 0 0 0 0 0 0 0.04 0"/>
<feBlend mode="normal" in2="BackgroundImageFix" result="effect1_dropShadow"/>
<feBlend mode="normal" in="SourceGraphic" in2="effect1_dropShadow" result="shape"/>
</filter>
<filter id="filter3_d" x="382.577" y="126.058" width="127.173" height="69.6299" filterUnits="userSpaceOnUse" color-interpolation-filters="sRGB">
<feFlood flood-opacity="0" result="BackgroundImageFix"/>
<feColorMatrix in="SourceAlpha" type="matrix" values="0 0 0 0 0 0 0 0 0 0 0 0 0 0 0 0 0 0 127 0"/>
<feOffset dy="20"/>
<feGaussianBlur stdDeviation="15"/>
<feColorMatrix type="matrix" values="0 0 0 0 0 0 0 0 0 0 0 0 0 0 0 0 0 0 0.04 0"/>
<feBlend mode="normal" in2="BackgroundImageFix" result="effect1_dropShadow"/>
<feBlend mode="normal" in="SourceGraphic" in2="effect1_dropShadow" result="shape"/>
</filter>
<filter id="filter4_d" x="339.952" y="127.128" width="97.6512" height="66.9549" filterUnits="userSpaceOnUse" color-interpolation-filters="sRGB">
<feFlood flood-opacity="0" result="BackgroundImageFix"/>
<feColorMatrix in="SourceAlpha" type="matrix" values="0 0 0 0 0 0 0 0 0 0 0 0 0 0 0 0 0 0 127 0"/>
<feOffset dy="20"/>
<feGaussianBlur stdDeviation="15"/>
<feColorMatrix type="matrix" values="0 0 0 0 0 0 0 0 0 0 0 0 0 0 0 0 0 0 0.04 0"/>
<feBlend mode="normal" in2="BackgroundImageFix" result="effect1_dropShadow"/>
<feBlend mode="normal" in="SourceGraphic" in2="effect1_dropShadow" result="shape"/>
</filter>
<filter id="filter5_d" x="383.753" y="117.445" width="76.6328" height="73.6008" filterUnits="userSpaceOnUse" color-interpolation-filters="sRGB">
<feFlood flood-opacity="0" result="BackgroundImageFix"/>
<feColorMatrix in="SourceAlpha" type="matrix" values="0 0 0 0 0 0 0 0 0 0 0 0 0 0 0 0 0 0 127 0"/>
<feOffset dy="20"/>
<feGaussianBlur stdDeviation="15"/>
<feColorMatrix type="matrix" values="0 0 0 0 0 0 0 0 0 0 0 0 0 0 0 0 0 0 0.04 0"/>
<feBlend mode="normal" in2="BackgroundImageFix" result="effect1_dropShadow"/>
<feBlend mode="normal" in="SourceGraphic" in2="effect1_dropShadow" result="shape"/>
</filter>
<filter id="filter6_d" x="430.283" y="110.276" width="73.3688" height="78.4057" filterUnits="userSpaceOnUse" color-interpolation-filters="sRGB">
<feFlood flood-opacity="0" result="BackgroundImageFix"/>
<feColorMatrix in="SourceAlpha" type="matrix" values="0 0 0 0 0 0 0 0 0 0 0 0 0 0 0 0 0 0 127 0"/>
<feOffset dy="20"/>
<feGaussianBlur stdDeviation="15"/>
<feColorMatrix type="matrix" values="0 0 0 0 0 0 0 0 0 0 0 0 0 0 0 0 0 0 0.04 0"/>
<feBlend mode="normal" in2="BackgroundImageFix" result="effect1_dropShadow"/>
<feBlend mode="normal" in="SourceGraphic" in2="effect1_dropShadow" result="shape"/>
</filter>
<filter id="filter7_d" x="77.9365" y="221.083" width="100.205" height="171.802" filterUnits="userSpaceOnUse" color-interpolation-filters="sRGB">
<feFlood flood-opacity="0" result="BackgroundImageFix"/>
<feColorMatrix in="SourceAlpha" type="matrix" values="0 0 0 0 0 0 0 0 0 0 0 0 0 0 0 0 0 0 127 0"/>
<feOffset dy="20"/>
<feGaussianBlur stdDeviation="15"/>
<feColorMatrix type="matrix" values="0 0 0 0 0 0 0 0 0 0 0 0 0 0 0 0 0 0 0.04 0"/>
<feBlend mode="normal" in2="BackgroundImageFix" result="effect1_dropShadow"/>
<feBlend mode="normal" in="SourceGraphic" in2="effect1_dropShadow" result="shape"/>
</filter>
<filter id="filter8_d" x="59.7603" y="161.324" width="93.9522" height="120.96" filterUnits="userSpaceOnUse" color-interpolation-filters="sRGB">
<feFlood flood-opacity="0" result="BackgroundImageFix"/>
<feColorMatrix in="SourceAlpha" type="matrix" values="0 0 0 0 0 0 0 0 0 0 0 0 0 0 0 0 0 0 127 0"/>
<feOffset dy="20"/>
<feGaussianBlur stdDeviation="15"/>
<feColorMatrix type="matrix" values="0 0 0 0 0 0 0 0 0 0 0 0 0 0 0 0 0 0 0.04 0"/>
<feBlend mode="normal" in2="BackgroundImageFix" result="effect1_dropShadow"/>
<feBlend mode="normal" in="SourceGraphic" in2="effect1_dropShadow" result="shape"/>
</filter>
<filter id="filter9_d" x="62.3301" y="181.241" width="83.417" height="100.895" filterUnits="userSpaceOnUse" color-interpolation-filters="sRGB">
<feFlood flood-opacity="0" result="BackgroundImageFix"/>
<feColorMatrix in="SourceAlpha" type="matrix" values="0 0 0 0 0 0 0 0 0 0 0 0 0 0 0 0 0 0 127 0"/>
<feOffset dy="20"/>
<feGaussianBlur stdDeviation="15"/>
<feColorMatrix type="matrix" values="0 0 0 0 0 0 0 0 0 0 0 0 0 0 0 0 0 0 0.04 0"/>
<feBlend mode="normal" in2="BackgroundImageFix" result="effect1_dropShadow"/>
<feBlend mode="normal" in="SourceGraphic" in2="effect1_dropShadow" result="shape"/>
</filter>
<filter id="filter10_d" x="52.9868" y="220.998" width="109.385" height="204.811" filterUnits="userSpaceOnUse" color-interpolation-filters="sRGB">
<feFlood flood-opacity="0" result="BackgroundImageFix"/>
<feColorMatrix in="SourceAlpha" type="matrix" values="0 0 0 0 0 0 0 0 0 0 0 0 0 0 0 0 0 0 127 0"/>
<feOffset dy="20"/>
<feGaussianBlur stdDeviation="15"/>
<feColorMatrix type="matrix" values="0 0 0 0 0 0 0 0 0 0 0 0 0 0 0 0 0 0 0.04 0"/>
<feBlend mode="normal" in2="BackgroundImageFix" result="effect1_dropShadow"/>
<feBlend mode="normal" in="SourceGraphic" in2="effect1_dropShadow" result="shape"/>
</filter>
</defs>
</svg>
