<svg width="23" height="23" viewBox="0 0 23 23" fill="none" xmlns="http://www.w3.org/2000/svg">
<path d="M20.7862 17.0251L15.642 12.9569C17.429 9.9707 17.0448 6.04722 14.4715 3.47389C11.4349 0.43774 6.51149 0.43774 3.47571 3.47389C0.438521 6.51075 0.437816 11.4345 3.47438 14.4711C6.04734 17.0437 9.97011 17.4276 12.957 15.6413L17.0252 20.7858C17.4992 21.3851 18.207 21.7534 18.9698 21.7981C19.7326 21.8424 20.478 21.5587 21.0186 21.0185C21.5591 20.4779 21.8425 19.7325 21.7982 18.9698C21.7538 18.2066 21.3859 17.4992 20.7862 17.0251ZM11.0361 13.8509C10.6131 13.7287 9.9845 13.5538 9.54403 13.5652C7.89414 13.6075 7.49994 15.5978 5.90516 13.2832C5.46734 12.6489 5.46531 12.2538 5.36592 11.8408C5.13961 10.9101 4.39903 10.3782 4.21289 10.2366C1.7351 8.34532 4.69305 6.27212 4.92135 6.04411C5.93671 5.0285 5.74934 4.94756 6.52629 4.3127C7.84907 3.23021 9.66755 4.38726 10.0409 4.58467C11.5928 5.40254 11.7021 4.55274 13.0418 5.58212C14.5762 6.76098 14.407 8.19464 13.659 9.45029C13.4031 9.88039 13.7536 10.9424 13.0982 12.4653C12.4858 13.8885 11.6699 14.0339 11.0361 13.8509ZM19.8944 19.8944C19.4244 20.3645 18.5199 20.2218 17.8733 19.5754C17.2273 18.9292 17.0842 18.0247 17.5543 17.5546C18.0243 17.0846 18.9288 17.2276 19.5748 17.8735C20.2215 18.5199 20.3645 19.4244 19.8944 19.8944Z" fill="white"/>
<path d="M6.30254 6.30286C5.36517 7.24027 5.36583 8.75984 6.30329 9.69725C7.24066 10.6354 8.76094 10.6354 9.69765 9.69825C10.6351 8.76083 10.6358 7.24023 9.69839 6.30248C8.76094 5.36474 7.24004 5.36577 6.30254 6.30286Z" fill="white"/>
</svg>
