<svg width="22" height="22" viewBox="0 0 22 22" fill="none" xmlns="http://www.w3.org/2000/svg">
<g clip-path="url(#clip0)">
<path d="M13.4233 8.57508C13.1627 8.31293 12.8738 8.08055 12.5618 7.8822C11.7356 7.35314 10.7751 7.072 9.79399 7.072C8.43225 7.06947 7.12585 7.61052 6.16464 8.57508L1.50148 13.2419C0.541902 14.2033 0.00256927 15.5059 0.00171005 16.8643C-9.43164e-05 19.6989 2.29626 21.9982 5.13083 22C6.49046 22.0047 7.79566 21.4662 8.75653 20.5042L12.6058 16.6549C12.6758 16.5856 12.7148 16.491 12.7143 16.3925C12.7131 16.1901 12.548 16.0269 12.3455 16.0281H12.1989C11.3947 16.0309 10.5976 15.8764 9.85268 15.5735C9.71542 15.517 9.55766 15.5489 9.45309 15.6541L6.68524 18.4256C5.82577 19.2851 4.43228 19.2851 3.5728 18.4256C2.71332 17.5661 2.71332 16.1727 3.5728 15.3132L8.25431 10.6354C9.1131 9.77764 10.5043 9.77764 11.3631 10.6354C11.9419 11.1801 12.8447 11.1801 13.4234 10.6354C13.6724 10.3861 13.8233 10.0556 13.8487 9.70418C13.8754 9.28424 13.7205 8.87297 13.4233 8.57508Z" fill="#00A8F0"/>
<path d="M20.4951 1.50332C18.4907 -0.501108 15.2408 -0.501108 13.2364 1.50332L9.39073 5.34529C9.28513 5.4514 9.25468 5.611 9.31375 5.74856C9.37213 5.88651 9.50857 5.97505 9.65834 5.97217H9.79396C10.5973 5.97071 11.393 6.12636 12.1365 6.43044C12.2738 6.48693 12.4316 6.45506 12.5361 6.3498L15.2966 3.59295C16.1561 2.73347 17.5496 2.73347 18.4091 3.59295C19.2685 4.45243 19.2685 5.84591 18.4091 6.70539L14.9703 10.1404L14.941 10.1734L13.7386 11.3686C12.8798 12.2263 11.4886 12.2263 10.6298 11.3686C10.051 10.8238 9.14822 10.8238 8.56949 11.3686C8.3189 11.6197 8.1678 11.9531 8.14422 12.307C8.11741 12.727 8.27228 13.1382 8.56949 13.4362C8.99382 13.8623 9.49027 14.2098 10.0359 14.4626C10.1129 14.4993 10.1899 14.5286 10.2668 14.5616C10.3438 14.5946 10.4245 14.6203 10.5014 14.6496C10.5784 14.679 10.6591 14.7046 10.7361 14.7266L10.9524 14.7852C11.099 14.8219 11.2457 14.8512 11.3959 14.8769C11.577 14.9038 11.7593 14.9209 11.9422 14.9282H12.1988H12.2208L12.4408 14.9026C12.5214 14.8989 12.6057 14.8806 12.7011 14.8806H12.8257L13.0786 14.8439L13.196 14.8219L13.4086 14.7779H13.4489C14.3494 14.5517 15.1717 14.0855 15.8281 13.4288L20.495 8.76202C22.4995 6.75759 22.4995 3.50776 20.4951 1.50332Z" fill="#00A8F0"/>
</g>
<defs>
<clipPath id="clip0">
<rect width="22" height="22" fill="white"/>
</clipPath>
</defs>
</svg>
